<?xml version="1.0" encoding="UTF-8"?>
<svg id="Layer_2" data-name="Layer 2" xmlns="http://www.w3.org/2000/svg" viewBox="0 0 670.86 147.08">
  <defs>
    <style>
      .cls-1, .cls-2, .cls-3 {
        fill: #fff;
      }

      .cls-4 {
        font-family: Amiri-Regular, Amiri;
        font-size: 33.5px;
      }

      .cls-5 {
        letter-spacing: 0em;
      }

      .cls-6 {
        letter-spacing: 0em;
      }

      .cls-7 {
        letter-spacing: 0em;
      }

      .cls-8 {
        letter-spacing: -.01em;
      }

      .cls-9 {
        stroke-linecap: round;
        stroke-width: 1.34px;
      }

      .cls-9, .cls-10 {
        fill: none;
        stroke: #fff;
        stroke-miterlimit: 10;
      }

      .cls-11 {
        letter-spacing: 0em;
      }

      .cls-2 {
        stroke-width: 0px;
      }

      .cls-12 {
        letter-spacing: 0em;
      }

      .cls-3 {
        font-size: 13.38px;
      }

      .cls-3, .cls-13 {
        font-family: Montserrat-Bold, Montserrat;
        font-weight: 700;
      }

      .cls-14 {
        font-family: Montserrat-Regular, Montserrat;
        font-size: 24.79px;
      }

      .cls-15 {
        letter-spacing: 0em;
      }

      .cls-16 {
        letter-spacing: -.02em;
      }

      .cls-17 {
        letter-spacing: 0em;
      }

      .cls-18 {
        letter-spacing: 0em;
      }

      .cls-19 {
        letter-spacing: 0em;
      }

      .cls-20 {
        letter-spacing: 0em;
      }

      .cls-13 {
        font-size: 32.16px;
      }

      .cls-21 {
        letter-spacing: -.01em;
      }

      .cls-10 {
        stroke-width: 2.7px;
      }
    </style>
  </defs>
  <g id="LOGO_VARIATION" data-name="LOGO VARIATION">
    <g>
      <text class="cls-1" transform="translate(179.47 46.99)"><tspan class="cls-13"><tspan x="0" y="0">Uru</tspan><tspan class="cls-6" x="61.29" y="0">r</tspan><tspan class="cls-15" x="75.02" y="0">k</tspan><tspan class="cls-17" x="95.92" y="0">a Horuma</tspan><tspan class="cls-6" x="261.42" y="0">r</tspan><tspan x="275.15" y="0">inta Bee</tspan><tspan class="cls-12" x="415.16" y="0">r</tspan><tspan x="428.79" y="0">aha</tspan></tspan><tspan class="cls-14"><tspan class="cls-19" x="0" y="29.74">A</tspan><tspan x="17.65" y="29.74">g</tspan><tspan class="cls-11" x="34.65" y="29.74">r</tspan><tspan class="cls-20" x="44.39" y="29.74">icu</tspan><tspan class="cls-7" x="81.7" y="29.74">l</tspan><tspan x="88.41" y="29.74">tu</tspan><tspan class="cls-18" x="115.16" y="29.74">r</tspan><tspan x="124.87" y="29.74">al D</tspan><tspan class="cls-8" x="173.13" y="29.74">e</tspan><tspan class="cls-16" x="187.85" y="29.74">v</tspan><tspan x="200.92" y="29.74">elop</tspan><tspan class="cls-5" x="254.9" y="29.74">m</tspan><tspan x="281.25" y="29.74">ent O</tspan><tspan class="cls-21" x="350.35" y="29.74">r</tspan><tspan x="359.97" y="29.74">ganization</tspan></tspan><tspan class="cls-4"><tspan x="0" y="69.94">ةعارزلا ةيمنت ةمظنم</tspan></tspan></text>
      <g>
        <polyline class="cls-10" points="43.6 78.46 10.93 72.3 44.11 70.28 14.01 56.18 46.65 62.47 20.99 41.34 51.04 55.55 31.45 28.69 57.02 49.93 44.73 19.05 64.21 45.98 59.98 13.01 72.16 43.94 76.26 10.95 80.36 43.94 92.54 13.01 88.31 45.98 107.79 19.05 95.5 49.93 121.07 28.69 101.48 55.55 131.52 41.34 105.87 62.47 138.51 56.18 108.41 70.28 141.58 72.3 108.92 78.46"/>
        <g>
          <g>
            <g>
              <path class="cls-2" d="m76.24,142.5c-.83,0-1.69-.02-2.55-.07-2.28-.12-4.57-.4-6.81-.85-3.63-.72-7.19-1.86-10.56-3.4-7.99-3.64-14.84-9.42-19.81-16.7-5.08-7.45-7.95-16.17-8.28-25.2-.03-.58-.04-1.19-.04-1.84l.12-19.52,3.09.02-.12,19.51c0,.6.01,1.16.04,1.7.64,17.09,10.71,32.12,26.29,39.22,3.16,1.44,6.48,2.52,9.88,3.18,2.1.42,4.24.68,6.37.79.81.04,1.62.06,2.39.06.04,0,.08,0,.11,0h.08c2.61,0,5.22-.24,7.77-.7,3.63-.65,7.18-1.75,10.55-3.27,15.38-6.96,25.49-21.73,26.4-38.55.04-.81.07-1.63.07-2.45l.03-19.69h3.09s-.03,19.7-.03,19.7c0,.88-.02,1.76-.07,2.62-.97,17.98-11.77,33.76-28.21,41.2-3.6,1.63-7.39,2.8-11.28,3.5-2.71.49-5.49.74-8.27.75-.08,0-.16,0-.24,0Z"/>
              <g>
                <path class="cls-2" d="m54.06,136.88c-.02-.67-.04-1.36-.04-2.03,0-10.42,2.69-20.7,7.77-29.72,1.81-3.21,3.92-6.27,6.27-9.09,2.34-2.81,4.95-5.42,7.74-7.75,10.87-9.08,24.67-14.09,38.86-14.09,2.82,0,5.68.2,8.48.59l-.8,5.74c-2.54-.35-5.13-.53-7.69-.53-12.83,0-25.32,4.53-35.15,12.74-2.53,2.11-4.89,4.46-7,7.01-2.13,2.55-4.04,5.32-5.68,8.23-4.6,8.16-7.03,17.45-7.03,26.88,0,.61.01,1.22.03,1.82l-5.79.21Z"/>
                <path class="cls-2" d="m64.3,140.38c-.2-1.83-.3-3.7-.3-5.53,0-6.83,1.34-13.45,3.97-19.69h0s.24-.57.24-.57c1.68-3.84,3.83-7.46,6.39-10.76,2.29-2.96,4.92-5.67,7.82-8.07,9.05-7.47,20.5-11.58,32.25-11.58,2.89,0,5.78.24,8.57.73l-.98,5.71c-2.47-.43-5.03-.64-7.59-.64-10.41,0-20.55,3.64-28.56,10.26-2.57,2.12-4.9,4.53-6.93,7.15-2.22,2.86-4.09,5.98-5.55,9.29l-.11.24c-2.47,5.67-3.73,11.7-3.73,17.94,0,1.63.09,3.28.27,4.91l-5.76.62Z"/>
                <path class="cls-2" d="m73.58,141.4c-.34-2.15-.52-4.35-.52-6.56,0-7.73,2.13-15.27,6.17-21.81,2.17-3.52,4.85-6.7,7.97-9.45,7.59-6.68,17.35-10.35,27.47-10.35,2.91,0,5.81.3,8.62.9l-1.2,5.67c-2.41-.51-4.91-.77-7.41-.77-8.71,0-17.11,3.16-23.64,8.91-2.69,2.37-5,5.1-6.87,8.14-3.47,5.63-5.31,12.12-5.31,18.77,0,1.9.15,3.8.44,5.65l-5.72.91Z"/>
              </g>
              <g>
                <path class="cls-2" d="m75.67,95.31c-10.25-9.78-23.69-15.16-37.86-15.16-2.55,0-5.14.18-7.68.53l-.8-5.74c2.81-.39,5.66-.59,8.48-.59,15.67,0,30.53,5.95,41.86,16.76l-4,4.19Z"/>
                <path class="cls-2" d="m68.31,102.7c-8.27-7.82-19.1-12.12-30.5-12.12-2.55,0-5.1.22-7.59.65l-.98-5.71c2.81-.48,5.7-.73,8.57-.73,12.88,0,25.13,4.87,34.48,13.71l-3.98,4.21Z"/>
                <path class="cls-2" d="m62.25,111.27c-6.47-6.66-15.15-10.33-24.44-10.33-2.51,0-5.01.27-7.41.81l-1.27-5.65c2.82-.63,5.74-.95,8.67-.95,10.87,0,21.02,4.29,28.59,12.09l-4.16,4.04Z"/>
                <polygon class="cls-2" points="67.97 118.45 67.97 118.45 73.76 118.45 67.97 118.45"/>
              </g>
            </g>
            <g>
              <path class="cls-2" d="m76.24,141.15c-.81,0-1.64-.02-2.48-.07-2.21-.11-4.44-.39-6.62-.82-3.53-.7-6.98-1.81-10.26-3.31-7.77-3.54-14.43-9.16-19.25-16.24-4.94-7.24-7.72-15.71-8.05-24.49-.03-.57-.04-1.16-.04-1.79l.12-19.51h.39s-.12,19.51-.12,19.51c0,.63.01,1.21.04,1.77.66,17.6,11.03,33.07,27.08,40.39,3.25,1.49,6.68,2.59,10.18,3.28,2.16.43,4.37.7,6.57.82.83.04,1.66.07,2.46.07.06,0,.13,0,.19,0,2.7,0,5.39-.25,8.01-.72,3.74-.67,7.4-1.8,10.87-3.37,15.84-7.16,26.26-22.38,27.19-39.71.05-.83.07-1.68.07-2.52l.03-19.69h.39s-.03,19.69-.03,19.69c0,.85-.02,1.71-.07,2.54-.94,17.47-11.44,32.82-27.42,40.04-3.5,1.58-7.18,2.72-10.96,3.4-2.64.47-5.36.72-8.07.73-.06,0-.13,0-.2,0Z"/>
              <g>
                <path class="cls-2" d="m56.77,136.78c-.02-.64-.03-1.29-.03-1.93,0-9.96,2.57-19.77,7.43-28.39,1.73-3.07,3.74-5.99,5.99-8.69,2.24-2.69,4.73-5.18,7.4-7.4,10.39-8.68,23.57-13.46,37.13-13.46,2.7,0,5.43.19,8.11.56l-.05.38c-2.67-.37-5.38-.56-8.06-.56-13.47,0-26.56,4.75-36.88,13.37-2.65,2.21-5.13,4.68-7.35,7.35-2.24,2.68-4.24,5.58-5.96,8.63-4.83,8.56-7.38,18.32-7.38,28.2,0,.64.01,1.29.03,1.92h-.39Z"/>
                <path class="cls-2" d="m66.99,140.09c-.19-1.74-.28-3.5-.28-5.24,0-6.65,1.34-13.09,3.97-19.14l.02-.04c1.59-3.63,3.62-7.06,6.05-10.19,2.17-2.8,4.66-5.37,7.41-7.64,8.56-7.07,19.41-10.96,30.53-10.96,2.74,0,5.47.23,8.12.69l-.07.38c-2.63-.45-5.33-.68-8.05-.68-11.04,0-21.79,3.86-30.29,10.87-2.72,2.25-5.19,4.8-7.35,7.58-2.4,3.09-4.41,6.48-5.99,10.07l-.02.04c-2.62,6.01-3.95,12.41-3.95,19.02,0,1.73.09,3.48.28,5.2l-.38.04Z"/>
                <path class="cls-2" d="m76.25,140.98c-.32-2.01-.48-4.07-.48-6.13,0-7.22,1.99-14.27,5.76-20.39,2.03-3.29,4.54-6.27,7.46-8.84,7.1-6.24,16.22-9.68,25.68-9.68,2.72,0,5.43.28,8.05.84l-.08.38c-2.6-.55-5.28-.83-7.97-.83-9.37,0-18.4,3.4-25.43,9.58-2.89,2.54-5.38,5.49-7.38,8.75-3.73,6.05-5.71,13.03-5.71,20.18,0,2.04.16,4.09.48,6.07l-.38.06Z"/>
              </g>
              <g>
                <path class="cls-2" d="m77.54,93.35c-10.75-10.26-24.86-15.91-39.73-15.91-2.68,0-5.39.19-8.05.56l-.05-.38c2.68-.37,5.41-.56,8.11-.56,14.97,0,29.17,5.69,40,16.02l-.27.28Z"/>
                <path class="cls-2" d="m70.17,100.73c-8.77-8.29-20.27-12.86-32.36-12.86-2.7,0-5.41.23-8.05.68l-.07-.38c2.66-.46,5.39-.69,8.11-.69,12.19,0,23.78,4.61,32.62,12.97l-.27.28Z"/>
                <path class="cls-2" d="m64.19,109.39c-6.99-7.19-16.35-11.15-26.38-11.15-2.71,0-5.4.29-8,.88l-.08-.38c2.62-.59,5.34-.89,8.08-.89,10.13,0,19.59,4,26.65,11.27l-.28.27Z"/>
                <polygon class="cls-2" points="70.67 118.45 70.67 118.45 71.06 118.45 70.67 118.45"/>
              </g>
            </g>
          </g>
          <g>
            <g>
              <path class="cls-2" d="m76.24,142.5c-.83,0-1.69-.02-2.55-.07-2.28-.12-4.57-.4-6.81-.85-3.63-.72-7.19-1.86-10.56-3.4-7.99-3.64-14.84-9.42-19.81-16.7-5.08-7.45-7.95-16.17-8.28-25.2-.03-.58-.04-1.19-.04-1.84l.12-19.52,3.09.02-.12,19.51c0,.6.01,1.16.04,1.7.64,17.09,10.71,32.12,26.29,39.22,3.16,1.44,6.48,2.52,9.88,3.18,2.1.42,4.24.68,6.37.79.81.04,1.62.06,2.39.06.04,0,.08,0,.11,0h.08c2.61,0,5.22-.24,7.77-.7,3.63-.65,7.18-1.75,10.55-3.27,15.38-6.96,25.49-21.73,26.4-38.55.04-.81.07-1.63.07-2.45l.03-19.69h3.09s-.03,19.7-.03,19.7c0,.88-.02,1.76-.07,2.62-.97,17.98-11.77,33.76-28.21,41.2-3.6,1.63-7.39,2.8-11.28,3.5-2.71.49-5.49.74-8.27.75-.08,0-.16,0-.24,0Z"/>
              <g>
                <path class="cls-2" d="m54.06,136.88c-.02-.67-.04-1.36-.04-2.03,0-10.42,2.69-20.7,7.77-29.72,1.81-3.21,3.92-6.27,6.27-9.09,2.34-2.81,4.95-5.42,7.74-7.75,10.87-9.08,24.67-14.09,38.86-14.09,2.82,0,5.68.2,8.48.59l-.8,5.74c-2.54-.35-5.13-.53-7.69-.53-12.83,0-25.32,4.53-35.15,12.74-2.53,2.11-4.89,4.46-7,7.01-2.13,2.55-4.04,5.32-5.68,8.23-4.6,8.16-7.03,17.45-7.03,26.88,0,.61.01,1.22.03,1.82l-5.79.21Z"/>
                <path class="cls-2" d="m64.3,140.38c-.2-1.83-.3-3.7-.3-5.53,0-6.83,1.34-13.45,3.97-19.69h0s.24-.57.24-.57c1.68-3.84,3.83-7.46,6.39-10.76,2.29-2.96,4.92-5.67,7.82-8.07,9.05-7.47,20.5-11.58,32.25-11.58,2.89,0,5.78.24,8.57.73l-.98,5.71c-2.47-.43-5.03-.64-7.59-.64-10.41,0-20.55,3.64-28.56,10.26-2.57,2.12-4.9,4.53-6.93,7.15-2.22,2.86-4.09,5.98-5.55,9.29l-.11.24c-2.47,5.67-3.73,11.7-3.73,17.94,0,1.63.09,3.28.27,4.91l-5.76.62Z"/>
                <path class="cls-2" d="m73.58,141.4c-.34-2.15-.52-4.35-.52-6.56,0-7.73,2.13-15.27,6.17-21.81,2.17-3.52,4.85-6.7,7.97-9.45,7.59-6.68,17.35-10.35,27.47-10.35,2.91,0,5.81.3,8.62.9l-1.2,5.67c-2.41-.51-4.91-.77-7.41-.77-8.71,0-17.11,3.16-23.64,8.91-2.69,2.37-5,5.1-6.87,8.14-3.47,5.63-5.31,12.12-5.31,18.77,0,1.9.15,3.8.44,5.65l-5.72.91Z"/>
              </g>
              <g>
                <path class="cls-2" d="m75.67,95.31c-10.25-9.78-23.69-15.16-37.86-15.16-2.55,0-5.14.18-7.68.53l-.8-5.74c2.81-.39,5.66-.59,8.48-.59,15.67,0,30.53,5.95,41.86,16.76l-4,4.19Z"/>
                <path class="cls-2" d="m68.31,102.7c-8.27-7.82-19.1-12.12-30.5-12.12-2.55,0-5.1.22-7.59.65l-.98-5.71c2.81-.48,5.7-.73,8.57-.73,12.88,0,25.13,4.87,34.48,13.71l-3.98,4.21Z"/>
                <path class="cls-2" d="m62.25,111.27c-6.47-6.66-15.15-10.33-24.44-10.33-2.51,0-5.01.27-7.41.81l-1.27-5.65c2.82-.63,5.74-.95,8.67-.95,10.87,0,21.02,4.29,28.59,12.09l-4.16,4.04Z"/>
                <polygon class="cls-2" points="67.97 118.45 67.97 118.45 73.76 118.45 67.97 118.45"/>
              </g>
            </g>
            <g>
              <path class="cls-2" d="m76.24,141.15c-.81,0-1.64-.02-2.48-.07-2.21-.11-4.44-.39-6.62-.82-3.53-.7-6.98-1.81-10.26-3.31-7.77-3.54-14.43-9.16-19.25-16.24-4.94-7.24-7.72-15.71-8.05-24.49-.03-.57-.04-1.16-.04-1.79l.12-19.51h.39s-.12,19.51-.12,19.51c0,.63.01,1.21.04,1.77.66,17.6,11.03,33.07,27.08,40.39,3.25,1.49,6.68,2.59,10.18,3.28,2.16.43,4.37.7,6.57.82.83.04,1.66.07,2.46.07.06,0,.13,0,.19,0,2.7,0,5.39-.25,8.01-.72,3.74-.67,7.4-1.8,10.87-3.37,15.84-7.16,26.26-22.38,27.19-39.71.05-.83.07-1.68.07-2.52l.03-19.69h.39s-.03,19.69-.03,19.69c0,.85-.02,1.71-.07,2.54-.94,17.47-11.44,32.82-27.42,40.04-3.5,1.58-7.18,2.72-10.96,3.4-2.64.47-5.36.72-8.07.73-.06,0-.13,0-.2,0Z"/>
              <g>
                <path class="cls-2" d="m56.77,136.78c-.02-.64-.03-1.29-.03-1.93,0-9.96,2.57-19.77,7.43-28.39,1.73-3.07,3.74-5.99,5.99-8.69,2.24-2.69,4.73-5.18,7.4-7.4,10.39-8.68,23.57-13.46,37.13-13.46,2.7,0,5.43.19,8.11.56l-.05.38c-2.67-.37-5.38-.56-8.06-.56-13.47,0-26.56,4.75-36.88,13.37-2.65,2.21-5.13,4.68-7.35,7.35-2.24,2.68-4.24,5.58-5.96,8.63-4.83,8.56-7.38,18.32-7.38,28.2,0,.64.01,1.29.03,1.92h-.39Z"/>
                <path class="cls-2" d="m66.99,140.09c-.19-1.74-.28-3.5-.28-5.24,0-6.65,1.34-13.09,3.97-19.14l.02-.04c1.59-3.63,3.62-7.06,6.05-10.19,2.17-2.8,4.66-5.37,7.41-7.64,8.56-7.07,19.41-10.96,30.53-10.96,2.74,0,5.47.23,8.12.69l-.07.38c-2.63-.45-5.33-.68-8.05-.68-11.04,0-21.79,3.86-30.29,10.87-2.72,2.25-5.19,4.8-7.35,7.58-2.4,3.09-4.41,6.48-5.99,10.07l-.02.04c-2.62,6.01-3.95,12.41-3.95,19.02,0,1.73.09,3.48.28,5.2l-.38.04Z"/>
                <path class="cls-2" d="m76.25,140.98c-.32-2.01-.48-4.07-.48-6.13,0-7.22,1.99-14.27,5.76-20.39,2.03-3.29,4.54-6.27,7.46-8.84,7.1-6.24,16.22-9.68,25.68-9.68,2.72,0,5.43.28,8.05.84l-.08.38c-2.6-.55-5.28-.83-7.97-.83-9.37,0-18.4,3.4-25.43,9.58-2.89,2.54-5.38,5.49-7.38,8.75-3.73,6.05-5.71,13.03-5.71,20.18,0,2.04.16,4.09.48,6.07l-.38.06Z"/>
              </g>
              <g>
                <path class="cls-2" d="m77.54,93.35c-10.75-10.26-24.86-15.91-39.73-15.91-2.68,0-5.39.19-8.05.56l-.05-.38c2.68-.37,5.41-.56,8.11-.56,14.97,0,29.17,5.69,40,16.02l-.27.28Z"/>
                <path class="cls-2" d="m70.17,100.73c-8.77-8.29-20.27-12.86-32.36-12.86-2.7,0-5.41.23-8.05.68l-.07-.38c2.66-.46,5.39-.69,8.11-.69,12.19,0,23.78,4.61,32.62,12.97l-.27.28Z"/>
                <path class="cls-2" d="m64.19,109.39c-6.99-7.19-16.35-11.15-26.38-11.15-2.71,0-5.4.29-8,.88l-.08-.38c2.62-.59,5.34-.89,8.08-.89,10.13,0,19.59,4,26.65,11.27l-.28.27Z"/>
                <polygon class="cls-2" points="70.67 118.45 70.67 118.45 71.06 118.45 70.67 118.45"/>
              </g>
            </g>
          </g>
        </g>
      </g>
      <g>
        <text class="cls-3" transform="translate(170.66 87.61) rotate(-90)"><tspan x="0" y="0">ADO</tspan></text>
        <line class="cls-9" x1="165.8" y1="89.47" x2="165.8" y2="118.79"/>
        <line class="cls-9" x1="165.8" y1="23.96" x2="165.8" y2="51.94"/>
      </g>
    </g>
  </g>
</svg>