<?xml version="1.0" encoding="UTF-8"?>
<svg id="Layer_2" data-name="Layer 2" xmlns="http://www.w3.org/2000/svg" viewBox="0 0 679.72 144.88">
  <defs>
    <style>
      .cls-1 {
        fill: #327f3e;
        font-family: Montserrat-Bold, Montserrat;
        font-size: 13.59px;
        font-weight: 700;
      }

      .cls-2 {
        stroke: #f9bf2c;
        stroke-width: 2.75px;
      }

      .cls-2, .cls-3 {
        fill: none;
        stroke-miterlimit: 10;
      }

      .cls-4 {
        fill: #317e3d;
      }

      .cls-4, .cls-5 {
        stroke-width: 0px;
      }

      .cls-3 {
        stroke: #317e3d;
        stroke-linecap: round;
        stroke-width: 1.38px;
      }

      .cls-5 {
        fill: #231f20;
      }
    </style>
  </defs>
  <g id="MAIN_LOGO" data-name="MAIN LOGO">
    <g>
      <g>
        <path class="cls-4" d="m184.99,37.71v-12.82h5.3v12.62c0,4.35,1.9,6.15,5.1,6.15s5.1-1.8,5.1-6.15v-12.62h5.23v12.82c0,6.74-3.86,10.46-10.37,10.46s-10.37-3.73-10.37-10.46Z"/>
        <path class="cls-4" d="m221.51,29.93v4.71c-.42-.03-.75-.07-1.14-.07-2.81,0-4.68,1.54-4.68,4.9v8.31h-5.1v-17.59h4.87v2.32c1.24-1.7,3.34-2.58,6.05-2.58Z"/>
        <path class="cls-4" d="m242.41,30.19v17.59h-4.84v-2.09c-1.34,1.54-3.3,2.35-5.46,2.35-4.41,0-7.52-2.49-7.52-7.91v-9.94h5.1v9.19c0,2.94,1.31,4.25,3.56,4.25s4.05-1.5,4.05-4.74v-8.7h5.1Z"/>
        <path class="cls-4" d="m258.06,29.93v4.71c-.42-.03-.75-.07-1.14-.07-2.81,0-4.68,1.54-4.68,4.9v8.31h-5.1v-17.59h4.87v2.32c1.24-1.7,3.34-2.58,6.05-2.58Z"/>
        <path class="cls-4" d="m268.66,40.88l-2.45,2.42v4.48h-5.1v-24.26h5.1v13.73l7.46-7.06h6.08l-7.32,7.46,7.98,10.14h-6.18l-5.56-6.9Z"/>
        <path class="cls-4" d="m297.92,37.74v10.04h-4.77v-2.19c-.95,1.6-2.78,2.45-5.36,2.45-4.12,0-6.57-2.29-6.57-5.33s2.19-5.26,7.55-5.26h4.05c0-2.19-1.31-3.47-4.05-3.47-1.86,0-3.79.62-5.07,1.64l-1.83-3.56c1.93-1.37,4.77-2.13,7.59-2.13,5.36,0,8.47,2.49,8.47,7.82Zm-5.1,4.48v-1.8h-3.5c-2.39,0-3.14.88-3.14,2.06,0,1.28,1.08,2.13,2.88,2.13,1.7,0,3.17-.78,3.76-2.39Z"/>
        <path class="cls-4" d="m333.13,24.89v22.89h-5.3v-9.38h-10.4v9.38h-5.3v-22.89h5.3v9.02h10.4v-9.02h5.3Z"/>
        <path class="cls-4" d="m336.89,38.98c0-5.3,4.09-9.06,9.68-9.06s9.65,3.76,9.65,9.06-4.05,9.06-9.65,9.06-9.68-3.76-9.68-9.06Zm14.16,0c0-3.04-1.93-4.87-4.48-4.87s-4.51,1.83-4.51,4.87,1.96,4.87,4.51,4.87,4.48-1.83,4.48-4.87Z"/>
        <path class="cls-4" d="m370.53,29.93v4.71c-.43-.03-.75-.07-1.14-.07-2.81,0-4.68,1.54-4.68,4.9v8.31h-5.1v-17.59h4.87v2.32c1.24-1.7,3.33-2.58,6.05-2.58Z"/>
        <path class="cls-4" d="m391.42,30.19v17.59h-4.84v-2.09c-1.34,1.54-3.3,2.35-5.46,2.35-4.42,0-7.52-2.49-7.52-7.91v-9.94h5.1v9.19c0,2.94,1.31,4.25,3.56,4.25s4.05-1.5,4.05-4.74v-8.7h5.1Z"/>
        <path class="cls-4" d="m425.89,37.71v10.07h-5.1v-9.29c0-2.84-1.28-4.15-3.34-4.15-2.29,0-3.89,1.47-3.89,4.61v8.83h-5.1v-9.29c0-2.84-1.21-4.15-3.33-4.15-2.26,0-3.86,1.47-3.86,4.61v8.83h-5.1v-17.59h4.87v2.03c1.31-1.5,3.27-2.29,5.53-2.29,2.45,0,4.54.95,5.79,2.88,1.41-1.8,3.69-2.88,6.34-2.88,4.19,0,7.19,2.42,7.19,7.78Z"/>
        <path class="cls-4" d="m446.02,37.74v10.04h-4.77v-2.19c-.95,1.6-2.78,2.45-5.36,2.45-4.12,0-6.57-2.29-6.57-5.33s2.19-5.26,7.55-5.26h4.05c0-2.19-1.31-3.47-4.05-3.47-1.86,0-3.79.62-5.07,1.64l-1.83-3.56c1.93-1.37,4.77-2.13,7.59-2.13,5.36,0,8.47,2.49,8.47,7.82Zm-5.1,4.48v-1.8h-3.5c-2.39,0-3.14.88-3.14,2.06,0,1.28,1.08,2.13,2.88,2.13,1.7,0,3.17-.78,3.76-2.39Z"/>
        <path class="cls-4" d="m461.55,29.93v4.71c-.43-.03-.75-.07-1.14-.07-2.81,0-4.68,1.54-4.68,4.9v8.31h-5.1v-17.59h4.87v2.32c1.24-1.7,3.33-2.58,6.05-2.58Z"/>
        <path class="cls-4" d="m463.97,24.89c0-1.6,1.28-2.84,3.17-2.84s3.17,1.18,3.17,2.75c0,1.7-1.28,2.94-3.17,2.94s-3.17-1.24-3.17-2.84Zm.62,5.3h5.1v17.59h-5.1v-17.59Z"/>
        <path class="cls-4" d="m492.41,37.71v10.07h-5.1v-9.29c0-2.84-1.31-4.15-3.56-4.15-2.45,0-4.22,1.5-4.22,4.74v8.7h-5.1v-17.59h4.87v2.06c1.37-1.5,3.43-2.32,5.82-2.32,4.15,0,7.29,2.42,7.29,7.78Z"/>
        <path class="cls-4" d="m508.37,46.93c-1.05.75-2.58,1.11-4.15,1.11-4.15,0-6.57-2.13-6.57-6.31v-7.23h-2.71v-3.92h2.71v-4.28h5.1v4.28h4.38v3.92h-4.38v7.16c0,1.5.82,2.32,2.19,2.32.75,0,1.5-.23,2.06-.65l1.37,3.6Z"/>
        <path class="cls-4" d="m526.81,37.74v10.04h-4.77v-2.19c-.95,1.6-2.78,2.45-5.36,2.45-4.12,0-6.57-2.29-6.57-5.33s2.19-5.26,7.55-5.26h4.05c0-2.19-1.31-3.47-4.05-3.47-1.86,0-3.79.62-5.07,1.64l-1.83-3.56c1.93-1.37,4.77-2.13,7.59-2.13,5.36,0,8.47,2.49,8.47,7.82Zm-5.1,4.48v-1.8h-3.5c-2.39,0-3.14.88-3.14,2.06,0,1.28,1.08,2.13,2.88,2.13,1.7,0,3.17-.78,3.76-2.39Z"/>
        <path class="cls-4" d="m562.02,41.54c0,3.96-3.14,6.25-9.16,6.25h-11.84v-22.89h11.18c5.72,0,8.67,2.39,8.67,5.95,0,2.29-1.18,4.05-3.04,5.04,2.55.82,4.19,2.78,4.19,5.66Zm-15.73-12.65v5.4h5.26c2.58,0,3.99-.92,3.99-2.71s-1.41-2.68-3.99-2.68h-5.26Zm10.4,12.1c0-1.93-1.47-2.84-4.22-2.84h-6.18v5.66h6.18c2.75,0,4.22-.85,4.22-2.81Z"/>
        <path class="cls-4" d="m582.81,40.42h-13.31c.49,2.19,2.35,3.53,5.04,3.53,1.86,0,3.21-.56,4.42-1.7l2.71,2.94c-1.63,1.86-4.09,2.85-7.26,2.85-6.08,0-10.04-3.83-10.04-9.06s4.02-9.06,9.39-9.06,9.16,3.47,9.16,9.12c0,.39-.07.95-.1,1.37Zm-13.37-2.98h8.67c-.36-2.22-2.03-3.66-4.32-3.66s-3.99,1.41-4.35,3.66Z"/>
        <path class="cls-4" d="m603.44,40.42h-13.31c.49,2.19,2.35,3.53,5.04,3.53,1.86,0,3.21-.56,4.42-1.7l2.71,2.94c-1.63,1.86-4.09,2.85-7.26,2.85-6.08,0-10.04-3.83-10.04-9.06s4.02-9.06,9.38-9.06,9.16,3.47,9.16,9.12c0,.39-.07.95-.1,1.37Zm-13.37-2.98h8.67c-.36-2.22-2.03-3.66-4.32-3.66s-3.99,1.41-4.35,3.66Z"/>
        <path class="cls-4" d="m617.86,29.93v4.71c-.43-.03-.75-.07-1.14-.07-2.81,0-4.68,1.54-4.68,4.9v8.31h-5.1v-17.59h4.87v2.32c1.24-1.7,3.33-2.58,6.05-2.58Z"/>
        <path class="cls-4" d="m636.36,37.74v10.04h-4.77v-2.19c-.95,1.6-2.78,2.45-5.36,2.45-4.12,0-6.57-2.29-6.57-5.33s2.19-5.26,7.55-5.26h4.05c0-2.19-1.31-3.47-4.05-3.47-1.86,0-3.79.62-5.07,1.64l-1.83-3.56c1.93-1.37,4.77-2.13,7.59-2.13,5.36,0,8.47,2.49,8.47,7.82Zm-5.1,4.48v-1.8h-3.5c-2.39,0-3.14.88-3.14,2.06,0,1.28,1.08,2.13,2.88,2.13,1.7,0,3.17-.78,3.76-2.39Z"/>
        <path class="cls-4" d="m658.96,37.71v10.07h-5.1v-9.29c0-2.84-1.31-4.15-3.56-4.15-2.45,0-4.22,1.5-4.22,4.74v8.7h-5.1v-24.26h5.1v8.5c1.37-1.37,3.34-2.09,5.59-2.09,4.15,0,7.29,2.42,7.29,7.78Z"/>
        <path class="cls-4" d="m679.13,37.74v10.04h-4.77v-2.19c-.95,1.6-2.78,2.45-5.36,2.45-4.12,0-6.57-2.29-6.57-5.33s2.19-5.26,7.55-5.26h4.05c0-2.19-1.31-3.47-4.05-3.47-1.86,0-3.79.62-5.07,1.64l-1.83-3.56c1.93-1.37,4.77-2.13,7.59-2.13,5.36,0,8.47,2.49,8.47,7.82Zm-5.1,4.48v-1.8h-3.5c-2.39,0-3.14.88-3.14,2.06,0,1.28,1.08,2.13,2.88,2.13,1.7,0,3.17-.78,3.76-2.39Z"/>
        <path class="cls-5" d="m196.41,73.31h-9.83l-2.12,4.71h-1.94l8.07-17.65h1.84l8.07,17.65h-1.97l-2.12-4.71Zm-.68-1.51l-4.23-9.48-4.23,9.48h8.47Z"/>
        <path class="cls-5" d="m215.19,64.76v11.65c0,4.56-2.24,6.63-6.63,6.63-2.42,0-4.79-.73-6.18-2.04l.91-1.36c1.26,1.13,3.18,1.81,5.22,1.81,3.35,0,4.89-1.54,4.89-4.81v-1.69c-1.11,1.69-3,2.57-5.17,2.57-3.78,0-6.65-2.65-6.65-6.45s2.87-6.4,6.65-6.4c2.22,0,4.13.91,5.24,2.65v-2.55h1.71Zm-1.74,6.3c0-2.87-2.12-4.84-5.04-4.84s-5.02,1.97-5.02,4.84,2.09,4.87,5.02,4.87,5.04-1.99,5.04-4.87Z"/>
        <path class="cls-5" d="m226.88,64.66v1.74c-.15,0-.3-.03-.43-.03-2.77,0-4.46,1.76-4.46,4.89v6.76h-1.79v-13.26h1.71v2.6c.83-1.76,2.52-2.7,4.97-2.7Z"/>
        <path class="cls-5" d="m229.7,60.58c0-.68.58-1.26,1.31-1.26s1.31.55,1.31,1.24c0,.73-.55,1.31-1.31,1.31s-1.31-.58-1.31-1.29Zm.4,4.18h1.79v13.26h-1.79v-13.26Z"/>
        <path class="cls-5" d="m235.55,71.39c0-3.96,2.87-6.73,6.83-6.73,2.24,0,4.13.88,5.19,2.62l-1.34.91c-.91-1.34-2.32-1.97-3.86-1.97-2.9,0-5.02,2.07-5.02,5.17s2.12,5.17,5.02,5.17c1.54,0,2.95-.6,3.86-1.94l1.34.91c-1.06,1.71-2.95,2.62-5.19,2.62-3.96,0-6.83-2.8-6.83-6.76Z"/>
        <path class="cls-5" d="m263.02,64.76v13.26h-1.71v-2.42c-.93,1.61-2.65,2.55-4.76,2.55-3.38,0-5.6-1.89-5.6-5.7v-7.69h1.79v7.51c0,2.82,1.46,4.26,3.98,4.26,2.77,0,4.51-1.79,4.51-4.81v-6.96h1.79Z"/>
        <path class="cls-5" d="m268.03,59.32h1.79v18.7h-1.79v-18.7Z"/>
        <path class="cls-5" d="m281.85,77.22c-.71.63-1.76.93-2.8.93-2.5,0-3.88-1.41-3.88-3.86v-8.02h-2.37v-1.51h2.37v-2.9h1.79v2.9h4.03v1.51h-4.03v7.92c0,1.56.81,2.42,2.29,2.42.73,0,1.46-.23,1.97-.68l.63,1.29Z"/>
        <path class="cls-5" d="m297.04,64.76v13.26h-1.71v-2.42c-.93,1.61-2.65,2.55-4.76,2.55-3.38,0-5.6-1.89-5.6-5.7v-7.69h1.79v7.51c0,2.82,1.46,4.26,3.98,4.26,2.77,0,4.51-1.79,4.51-4.81v-6.96h1.79Z"/>
        <path class="cls-5" d="m308.73,64.66v1.74c-.15,0-.3-.03-.43-.03-2.77,0-4.46,1.76-4.46,4.89v6.76h-1.79v-13.26h1.71v2.6c.83-1.76,2.52-2.7,4.97-2.7Z"/>
        <path class="cls-5" d="m321.94,69.8v8.22h-1.71v-2.07c-.81,1.36-2.37,2.19-4.56,2.19-3,0-4.84-1.56-4.84-3.86,0-2.04,1.31-3.76,5.12-3.76h4.21v-.81c0-2.27-1.29-3.5-3.76-3.5-1.71,0-3.33.61-4.41,1.56l-.81-1.34c1.34-1.13,3.3-1.79,5.39-1.79,3.43,0,5.37,1.71,5.37,5.14Zm-1.79,4.23v-2.17h-4.16c-2.57,0-3.4,1.01-3.4,2.37,0,1.54,1.24,2.5,3.35,2.5s3.5-.96,4.21-2.7Z"/>
        <path class="cls-5" d="m326.8,59.32h1.79v18.7h-1.79v-18.7Z"/>
        <path class="cls-5" d="m340.56,60.38h7.18c5.65,0,9.45,3.63,9.45,8.82s-3.81,8.82-9.45,8.82h-7.18v-17.65Zm7.08,16.03c4.69,0,7.71-2.97,7.71-7.21s-3.03-7.21-7.71-7.21h-5.22v14.42h5.22Z"/>
        <path class="cls-5" d="m372.55,71.95h-11.09c.2,2.77,2.32,4.61,5.22,4.61,1.61,0,3.05-.58,4.06-1.74l1.01,1.16c-1.19,1.41-3.03,2.17-5.12,2.17-4.13,0-6.96-2.82-6.96-6.76s2.75-6.73,6.48-6.73,6.43,2.75,6.43,6.73c0,.15-.02.35-.02.55Zm-11.09-1.34h9.4c-.23-2.6-2.12-4.41-4.71-4.41s-4.46,1.81-4.69,4.41Z"/>
        <path class="cls-5" d="m387.11,64.76l-5.9,13.26h-1.84l-5.87-13.26h1.87l4.97,11.29,5.02-11.29h1.76Z"/>
        <path class="cls-5" d="m400.8,71.95h-11.09c.2,2.77,2.32,4.61,5.22,4.61,1.61,0,3.05-.58,4.06-1.74l1.01,1.16c-1.19,1.41-3.03,2.17-5.12,2.17-4.13,0-6.96-2.82-6.96-6.76s2.75-6.73,6.48-6.73,6.43,2.75,6.43,6.73c0,.15-.02.35-.02.55Zm-11.09-1.34h9.4c-.23-2.6-2.12-4.41-4.71-4.41s-4.46,1.81-4.69,4.41Z"/>
        <path class="cls-5" d="m404.47,59.32h1.79v18.7h-1.79v-18.7Z"/>
        <path class="cls-5" d="m409.92,71.39c0-3.93,2.87-6.73,6.76-6.73s6.73,2.8,6.73,6.73-2.85,6.76-6.73,6.76-6.76-2.82-6.76-6.76Zm11.67,0c0-3.1-2.09-5.17-4.92-5.17s-4.94,2.07-4.94,5.17,2.12,5.17,4.94,5.17,4.92-2.07,4.92-5.17Z"/>
        <path class="cls-5" d="m440.49,71.39c0,4.03-2.82,6.76-6.6,6.76-2.12,0-3.93-.91-5.04-2.62v7.39h-1.79v-18.15h1.71v2.62c1.08-1.76,2.92-2.72,5.12-2.72,3.78,0,6.6,2.72,6.6,6.73Zm-1.79,0c0-3.08-2.14-5.17-4.94-5.17s-4.94,2.09-4.94,5.17,2.12,5.17,4.94,5.17,4.94-2.07,4.94-5.17Z"/>
        <path class="cls-5" d="m466.02,70.33v7.69h-1.79v-7.51c0-2.8-1.41-4.23-3.81-4.23-2.72,0-4.44,1.76-4.44,4.79v6.96h-1.79v-7.51c0-2.8-1.41-4.23-3.83-4.23-2.7,0-4.44,1.76-4.44,4.79v6.96h-1.79v-13.26h1.71v2.42c.93-1.59,2.65-2.52,4.86-2.52s3.91.93,4.71,2.8c.96-1.71,2.85-2.8,5.24-2.8,3.23,0,5.34,1.87,5.34,5.67Z"/>
        <path class="cls-5" d="m482.47,71.95h-11.09c.2,2.77,2.32,4.61,5.22,4.61,1.61,0,3.05-.58,4.06-1.74l1.01,1.16c-1.19,1.41-3.03,2.17-5.12,2.17-4.13,0-6.96-2.82-6.96-6.76s2.75-6.73,6.48-6.73,6.43,2.75,6.43,6.73c0,.15-.02.35-.02.55Zm-11.09-1.34h9.4c-.23-2.6-2.12-4.41-4.71-4.41s-4.46,1.81-4.69,4.41Z"/>
        <path class="cls-5" d="m498.35,70.33v7.69h-1.79v-7.51c0-2.8-1.46-4.23-3.98-4.23-2.85,0-4.64,1.76-4.64,4.79v6.96h-1.79v-13.26h1.71v2.45c.96-1.61,2.75-2.55,5.04-2.55,3.23,0,5.45,1.87,5.45,5.67Z"/>
        <path class="cls-5" d="m510.19,77.22c-.71.63-1.76.93-2.8.93-2.5,0-3.88-1.41-3.88-3.86v-8.02h-2.37v-1.51h2.37v-2.9h1.79v2.9h4.03v1.51h-4.03v7.92c0,1.56.81,2.42,2.29,2.42.73,0,1.46-.23,1.97-.68l.63,1.29Z"/>
        <path class="cls-5" d="m518.86,69.2c0-5.14,3.93-8.97,9.28-8.97s9.25,3.81,9.25,8.97-3.96,8.97-9.25,8.97-9.28-3.83-9.28-8.97Zm16.66,0c0-4.21-3.15-7.31-7.39-7.31s-7.44,3.1-7.44,7.31,3.18,7.31,7.44,7.31,7.39-3.1,7.39-7.31Z"/>
        <path class="cls-5" d="m547.87,64.66v1.74c-.15,0-.3-.03-.43-.03-2.77,0-4.46,1.76-4.46,4.89v6.76h-1.79v-13.26h1.71v2.6c.83-1.76,2.52-2.7,4.97-2.7Z"/>
        <path class="cls-5" d="m563.24,64.76v11.65c0,4.56-2.24,6.63-6.63,6.63-2.42,0-4.79-.73-6.18-2.04l.91-1.36c1.26,1.13,3.18,1.81,5.22,1.81,3.35,0,4.89-1.54,4.89-4.81v-1.69c-1.11,1.69-3,2.57-5.17,2.57-3.78,0-6.66-2.65-6.66-6.45s2.87-6.4,6.66-6.4c2.22,0,4.13.91,5.24,2.65v-2.55h1.71Zm-1.74,6.3c0-2.87-2.12-4.84-5.04-4.84s-5.02,1.97-5.02,4.84,2.09,4.87,5.02,4.87,5.04-1.99,5.04-4.87Z"/>
        <path class="cls-5" d="m578.26,69.8v8.22h-1.71v-2.07c-.81,1.36-2.37,2.19-4.56,2.19-3,0-4.84-1.56-4.84-3.86,0-2.04,1.31-3.76,5.12-3.76h4.21v-.81c0-2.27-1.29-3.5-3.76-3.5-1.71,0-3.33.61-4.41,1.56l-.81-1.34c1.34-1.13,3.3-1.79,5.39-1.79,3.43,0,5.37,1.71,5.37,5.14Zm-1.79,4.23v-2.17h-4.16c-2.57,0-3.4,1.01-3.4,2.37,0,1.54,1.23,2.5,3.35,2.5s3.5-.96,4.21-2.7Z"/>
        <path class="cls-5" d="m595.32,70.33v7.69h-1.79v-7.51c0-2.8-1.46-4.23-3.98-4.23-2.85,0-4.64,1.76-4.64,4.79v6.96h-1.79v-13.26h1.71v2.45c.96-1.61,2.75-2.55,5.04-2.55,3.23,0,5.45,1.87,5.45,5.67Z"/>
        <path class="cls-5" d="m599.78,60.58c0-.68.58-1.26,1.31-1.26s1.31.55,1.31,1.24c0,.73-.55,1.31-1.31,1.31s-1.31-.58-1.31-1.29Zm.4,4.18h1.79v13.26h-1.79v-13.26Z"/>
        <path class="cls-5" d="m616.32,76.54v1.49h-10.79v-1.18l8.34-10.56h-8.19v-1.51h10.49v1.19l-8.34,10.59h8.5Z"/>
        <path class="cls-5" d="m629.85,69.8v8.22h-1.71v-2.07c-.81,1.36-2.37,2.19-4.56,2.19-3,0-4.84-1.56-4.84-3.86,0-2.04,1.31-3.76,5.12-3.76h4.21v-.81c0-2.27-1.29-3.5-3.76-3.5-1.71,0-3.33.61-4.41,1.56l-.81-1.34c1.34-1.13,3.3-1.79,5.39-1.79,3.43,0,5.37,1.71,5.37,5.14Zm-1.79,4.23v-2.17h-4.16c-2.57,0-3.4,1.01-3.4,2.37,0,1.54,1.23,2.5,3.35,2.5s3.5-.96,4.21-2.7Z"/>
        <path class="cls-5" d="m641.69,77.22c-.71.63-1.76.93-2.8.93-2.5,0-3.88-1.41-3.88-3.86v-8.02h-2.37v-1.51h2.37v-2.9h1.79v2.9h4.03v1.51h-4.03v7.92c0,1.56.81,2.42,2.29,2.42.73,0,1.46-.23,1.97-.68l.63,1.29Z"/>
        <path class="cls-5" d="m644.54,60.58c0-.68.58-1.26,1.31-1.26s1.31.55,1.31,1.24c0,.73-.55,1.31-1.31,1.31s-1.31-.58-1.31-1.29Zm.4,4.18h1.79v13.26h-1.79v-13.26Z"/>
        <path class="cls-5" d="m650.39,71.39c0-3.93,2.87-6.73,6.76-6.73s6.73,2.8,6.73,6.73-2.85,6.76-6.73,6.76-6.76-2.82-6.76-6.76Zm11.67,0c0-3.1-2.09-5.17-4.92-5.17s-4.94,2.07-4.94,5.17,2.12,5.17,4.94,5.17,4.92-2.07,4.92-5.17Z"/>
        <path class="cls-5" d="m679.72,70.33v7.69h-1.79v-7.51c0-2.8-1.46-4.23-3.98-4.23-2.85,0-4.64,1.76-4.64,4.79v6.96h-1.79v-13.26h1.71v2.45c.96-1.61,2.75-2.55,5.04-2.55,3.23,0,5.45,1.87,5.45,5.67Z"/>
        <path class="cls-5" d="m188.47,97.84c.05-.07.14-.09.27-.07.45.16.88.35,1.28.58.4.23.78.5,1.14.82.09.09.1.19.03.31l-1.63,2.59c-.05.07-.15.05-.31-.07-.07-.07-.26-.2-.58-.39-.32-.19-.77-.46-1.36-.8l-1.29,2.01c-.07.11-.18.1-.34-.03-.09-.07-.33-.23-.71-.48-.39-.25-.94-.59-1.67-1.02-.09-.07-.1-.14-.03-.21l1.67-2.49c.04-.07.14-.09.27-.07.39.11.75.27,1.09.46.34.19.66.41.95.66l1.23-1.81Zm2.72,6.1c.29-.41.48-.32.54.27.02.23.08.67.17,1.33.09.66.2,1.56.34,2.69.14,1.11.24,2,.32,2.67.08.67.13,1.11.15,1.31.18,1.84.57,2.94,1.16,3.3.34.25.84.35,1.5.31.41,0,.65.24.72.71.07.5.02,1.01-.14,1.53-.16.5-.35.77-.58.82-1.27.09-2.21-.23-2.83-.95-.64-.77-1.07-2.12-1.29-4.05-.64,1.2-1.29,1.94-1.98,2.21-.5.18-1.19.19-2.08.03-.95-.18-1.62-.43-2.01-.75-.43-.36-.61-.76-.54-1.19.07-.5.28-1.11.65-1.84.39-.77.68-1.26.89-1.46,1.2-1.16,2.63-2.18,4.29-3.07-.07-.93-.1-1.62-.1-2.08s.1-.82.31-1.09l.51-.71Zm-.48,5.96c-1.77.5-3.04,1.26-3.81,2.28-.09.14-.06.25.1.34.45.23.99.36,1.6.39.61.03,1.31-.03,2.08-.19.11-.02.24-.1.37-.24-.02-.36-.06-.76-.12-1.19-.06-.43-.13-.9-.22-1.4Z"/>
        <path class="cls-5" d="m206.86,113.34l-.92,2.04c-.16.3-.31.49-.44.58-.68.5-1.46.94-2.35,1.31-.89.37-1.86.71-2.93,1-2.07.57-3.68.77-4.84.61-.57-.11-.81-.66-.72-1.63.09-.88.28-1.36.58-1.43h.14c.34.05.67.05.99,0-.61-.77-.98-1.71-1.09-2.83-.2-2.02.31-3.62,1.53-4.8,1.36-1.34,2.67-2.12,3.92-2.35,1.27-.25,2.91.51,4.9,2.28.27.23.32.49.14.78-.16.27-.4.34-.72.21-2.13-.82-4.28-.84-6.44-.07-.95.34-1.51.76-1.67,1.26-.18.52.11,1.39.89,2.59.82,1.27,1.54,1.97,2.18,2.11,1.43.29,2.87-.02,4.32-.95l.99-.68c.75-.52,1.23-.68,1.43-.48.14.14.17.28.1.44Z"/>
        <path class="cls-5" d="m211.69,96.07c.48-1.11.78-1.13.92-.07l.78,8.34c.86,7.52.76,12.28-.31,14.3-.16.27-.28.34-.37.2-.09-.11-.14-.31-.14-.58.05-1.91-.09-4.05-.41-6.44,0-.09-.24-2.25-.72-6.47l-.75-6.16c-.05-.45,0-.84.14-1.16l.85-1.98Z"/>
        <path class="cls-5" d="m224.43,109.39c.02-.09.06-.15.1-.17.11-.04.28.05.51.27.89.91,1.54,2.12,1.98,3.64.45,1.57.61,3.09.48,4.56-.27,2-1.07,3.84-2.38,5.52-1.32,1.7-3.04,2.83-5.18,3.37-.54.16-1.09.15-1.63-.03-1.32-.46-2.39-.85-3.22-1.17-.83-.33-1.4-.6-1.72-.8-.09-.07-.14-.14-.14-.2,0-.09.03-.17.1-.24.07-.07.17-.08.31-.03.79.23,1.52.38,2.18.46.66.08,1.27.08,1.84.02.57-.07,1.17-.23,1.82-.49.65-.26,1.33-.63,2.06-1.11,2.16-1.38,3.73-3.02,4.73-4.9.09-.14.11-.32.07-.54-.34-1.2-1.23-2.69-2.66-4.46-.07-.11-.09-.2-.07-.27l.82-3.41Z"/>
        <path class="cls-5" d="m239.25,111.7c.39.48.66,1.17.82,2.08.16.89.2,1.81.14,2.76-.07.89-.41,2.07-1.02,3.54-.84,2.04-2.15,3.6-3.92,4.67-.89.54-1.85.85-2.89.92-1.07.07-2.85-.69-5.35-2.28-.16-.11-.23-.25-.2-.41.02-.16.16-.2.41-.14,3.2,1.09,6.15.5,8.85-1.77,1.32-1.11,2.34-2.43,3.06-3.95.11-.23.14-.51.07-.85-.07-.39-.48-.93-1.23-1.63-.09-.09-.1-.24-.03-.44l.82-2.42c.05-.14.11-.21.2-.21.11,0,.2.05.27.14Zm-3.98-10.56c.05-.07.14-.09.27-.07.91.32,1.71.8,2.42,1.43.09.09.1.18.03.27l-1.6,2.59c-.07.11-.18.1-.34-.03-.09-.07-.33-.23-.71-.48-.39-.25-.94-.59-1.67-1.02-.11-.07-.14-.14-.07-.2l1.67-2.49Z"/>
        <path class="cls-5" d="m241.94,92.56c.11,0,.2.09.27.27.07.2.32.56.75,1.06.23.25.44.48.65.7.2.22.41.4.61.56.25.21.24.52-.03.95l-.89,1.33c.05.54.15,1.36.32,2.45s.37,2.47.6,4.15c.25,1.66.42,3.07.51,4.22.09,1.16.11,2.07.07,2.72-.18,2.72-1.21,4.36-3.1,4.9-.27.09-.53.15-.77.17s-.46.02-.66,0c-.64-.07-1.1-.65-1.4-1.74-.29-1.09-.34-1.94-.14-2.55.05-.14.11-.21.2-.21.11,0,.2.05.27.14.54.45,1.26.67,2.15.65.93-.05,1.67-.27,2.21-.68.07-.77-.35-3.93-1.26-9.47l-.68-4.12c-.11-.75-.25-1.42-.41-2.01-.09-.32-.15-.58-.19-.8s-.06-.37-.08-.46c-.05-.25-.02-.45.07-.61l.68-1.46c.07-.11.15-.17.24-.17Z"/>
        <path class="cls-5" d="m249.97,96.07c.48-1.11.78-1.13.92-.07l.78,8.34c.86,7.52.76,12.28-.31,14.3-.16.27-.28.34-.37.2-.09-.11-.14-.31-.14-.58.05-1.91-.09-4.05-.41-6.44,0-.09-.24-2.25-.72-6.47l-.75-6.16c-.05-.45,0-.84.14-1.16l.85-1.98Z"/>
        <path class="cls-5" d="m270.27,97.84c.05-.07.14-.09.27-.07.45.16.88.35,1.28.58.4.23.78.5,1.14.82.09.09.1.19.03.31l-1.63,2.59c-.05.07-.15.05-.31-.07-.07-.07-.26-.2-.58-.39-.32-.19-.77-.46-1.36-.8l-1.29,2.01c-.07.11-.18.1-.34-.03-.09-.07-.33-.23-.71-.48-.39-.25-.94-.59-1.67-1.02-.09-.07-.1-.14-.03-.21l1.67-2.49c.04-.07.14-.09.27-.07.39.11.75.27,1.09.46.34.19.66.41.95.66l1.23-1.81Zm2.72,6.1c.29-.41.48-.32.54.27.02.23.08.67.17,1.33.09.66.2,1.56.34,2.69.14,1.11.24,2,.32,2.67.08.67.13,1.11.15,1.31.18,1.84.57,2.94,1.16,3.3.34.25.84.35,1.5.31.41,0,.65.24.72.71.07.5.02,1.01-.14,1.53-.16.5-.35.77-.58.82-1.27.09-2.21-.23-2.83-.95-.64-.77-1.07-2.12-1.29-4.05-.64,1.2-1.29,1.94-1.98,2.21-.5.18-1.19.19-2.08.03-.95-.18-1.62-.43-2.01-.75-.43-.36-.61-.76-.54-1.19.07-.5.28-1.11.65-1.84.39-.77.68-1.26.89-1.46,1.2-1.16,2.63-2.18,4.29-3.07-.07-.93-.1-1.62-.1-2.08s.1-.82.31-1.09l.51-.71Zm-.48,5.96c-1.77.5-3.04,1.26-3.81,2.28-.09.14-.06.25.1.34.45.23.99.36,1.6.39.61.03,1.31-.03,2.08-.19.11-.02.24-.1.37-.24-.02-.36-.06-.76-.12-1.19-.06-.43-.13-.9-.22-1.4Z"/>
        <path class="cls-5" d="m285.49,115.83c.41.11.62.24.65.37.05.18.05.46,0,.82-.16,1.25-.37,1.87-.65,1.87-1.23,0-2.45-.69-3.68-2.08-1.04,1.25-2.59,1.94-4.63,2.08-.23,0-.37-.17-.44-.51l-.27-1.43c-.07-.2-.02-.44.14-.71.14-.23.33-.36.58-.41,2.5-.21,4.18-.95,5.04-2.25.11-.18.27-.27.48-.27s.31.1.31.31c0,.18.02.32.07.41.75,1.02,1.56,1.62,2.42,1.81Zm-2.59,5.24c.05-.07.14-.09.27-.07.45.16.88.35,1.28.58.4.23.78.5,1.14.82.09.09.1.19.03.31l-1.63,2.59c-.05.07-.15.05-.31-.07-.07-.07-.26-.2-.58-.39-.32-.19-.77-.46-1.36-.8l-1.29,2.01c-.07.11-.18.1-.34-.03-.09-.07-.33-.23-.71-.48-.39-.25-.94-.59-1.67-1.02-.09-.07-.1-.14-.03-.2l1.67-2.49c.04-.07.14-.09.27-.07.39.11.75.27,1.09.46.34.19.66.41.95.66l1.23-1.8Z"/>
        <path class="cls-5" d="m289.92,109.8c-.02.61.26,1.42.85,2.42.23.36.47.68.73.95.26.27.54.5.83.68.11.07.31.14.58.22.27.08.62.18,1.06.29.34.09.64.19.89.29.25.1.48.21.68.32.39.18.58.49.58.92-.02,1.18-.12,2.11-.31,2.79-.07.36-.25.45-.54.27-2.11-1.16-3.5-1.74-4.15-1.74s-1.59.27-2.79.82c-.59.27-1.12.48-1.58.63-.47.15-.88.22-1.24.22-.27,0-.49-.25-.65-.75-.16-.52-.19-1.03-.1-1.53s.34-.76.75-.78c1.84-.16,3.2-.54,4.09-1.16-.93-1.68-1.11-3.43-.54-5.25.64-1.43.93-1.3.89.38Z"/>
        <path class="cls-5" d="m289.79,98.15c.05-.07.14-.09.27-.07.91.32,1.71.79,2.42,1.43.09.09.1.18.03.27l-1.6,2.59c-.07.11-.18.1-.34-.03-.09-.07-.33-.23-.72-.48-.39-.25-.94-.59-1.67-1.02-.11-.07-.14-.14-.07-.2l1.67-2.49Zm8.24,9.37c.36,0,.44.45.24,1.36-.2.86-.44,1.39-.72,1.57-.14.04-.24.07-.31.07-1.04-.04-2.26-.96-3.64-2.76-.25-.29-.62-.38-1.12-.24-1.04.25-1.94.82-2.69,1.7-.45.52-.72.68-.78.48-.02-.04-.02-.11,0-.2.02-.02.03-.04.03-.07.3-1.04.78-1.95,1.46-2.72,1.2-1.36,2.29-2.04,3.27-2.04.57,0,1.03.32,1.4.95.82,1.27,1.77,1.91,2.86,1.91Z"/>
        <path class="cls-5" d="m301.84,94.85c.05-.07.14-.09.27-.07.45.16.88.35,1.28.58.4.23.78.5,1.14.82.09.09.1.19.03.31l-1.63,2.59c-.05.07-.15.05-.31-.07-.07-.07-.26-.2-.58-.39-.32-.19-.77-.46-1.36-.8l-1.29,2.01c-.07.11-.18.1-.34-.03-.09-.07-.33-.23-.72-.48s-.94-.59-1.67-1.02c-.09-.07-.1-.14-.03-.2l1.67-2.49c.04-.07.14-.09.27-.07.39.11.75.27,1.09.46.34.19.66.41.95.66l1.23-1.8Zm-5.01,15.33c-.02-.11-.02-.29.02-.54.03-.25.1-.57.19-.95.2-.77.53-1.16.99-1.16s.87-.23,1.26-.68c.18-.23.36-.48.53-.75.17-.27.31-.58.43-.92.09-.29.25-.4.48-.31.23.09.31.27.24.54-.39,1.75-.79,2.95-1.23,3.61-.66,1.07-1.49,1.57-2.49,1.5-.25-.04-.39-.16-.41-.34Z"/>
        <path class="cls-5" d="m319.04,97.84c.05-.07.14-.09.27-.07.45.16.88.35,1.28.58.4.23.78.5,1.14.82.09.09.1.19.03.31l-1.63,2.59c-.05.07-.15.05-.31-.07-.07-.07-.26-.2-.58-.39-.32-.19-.77-.46-1.36-.8l-1.29,2.01c-.07.11-.18.1-.34-.03-.09-.07-.33-.23-.71-.48-.39-.25-.94-.59-1.67-1.02-.09-.07-.1-.14-.03-.21l1.67-2.49c.04-.07.14-.09.27-.07.39.11.75.27,1.09.46.34.19.66.41.95.66l1.23-1.81Zm2.72,6.1c.29-.41.48-.32.54.27.02.23.08.67.17,1.33.09.66.2,1.56.34,2.69.14,1.11.24,2,.32,2.67.08.67.13,1.11.15,1.31.18,1.84.57,2.94,1.16,3.3.34.25.84.35,1.5.31.41,0,.65.24.72.71.07.5.02,1.01-.14,1.53-.16.5-.35.77-.58.82-1.27.09-2.21-.23-2.83-.95-.64-.77-1.07-2.12-1.29-4.05-.64,1.2-1.29,1.94-1.98,2.21-.5.18-1.19.19-2.08.03-.95-.18-1.62-.43-2.01-.75-.43-.36-.61-.76-.54-1.19.07-.5.28-1.11.65-1.84.39-.77.68-1.26.89-1.46,1.2-1.16,2.63-2.18,4.29-3.07-.07-.93-.1-1.62-.1-2.08s.1-.82.31-1.09l.51-.71Zm-.48,5.96c-1.77.5-3.04,1.26-3.81,2.28-.09.14-.06.25.1.34.45.23.99.36,1.6.39.61.03,1.31-.03,2.08-.19.11-.02.24-.1.37-.24-.02-.36-.06-.76-.12-1.19-.06-.43-.13-.9-.22-1.4Z"/>
        <path class="cls-5" d="m333.55,110.38c.14-.07.24-.04.31.07.82,1.23,1.91,2.38,3.27,3.47,1.38,1.11,2.93,1.75,4.63,1.91.43.02.65.31.65.85,0,1.48-.22,2.21-.65,2.21-1.54,0-3.15-.57-4.8-1.7-.11,1.27-.25,1.99-.41,2.15-.18.18-.4.27-.65.27-2.57-.21-4.69-1.33-6.37-3.37-.07-.09-.15-.08-.24.03-1.14,1.7-2.25,2.58-3.34,2.62-.25,0-.42-.18-.51-.54-.27-1.02-.26-1.75.03-2.18.16-.23.32-.34.48-.34,2.13-.07,3.44-.61,3.92-1.63,1-2.02,2.22-3.29,3.68-3.81Zm-.14,2.52c-.05-.07-.13-.09-.24-.07-.68.16-1.17.44-1.46.85-.11.16-.1.28.03.37.41.34.86.64,1.35.9.49.26,1.02.48,1.58.66.16.05.26.05.29,0,.03-.04,0-.11-.08-.2-.23-.32-.47-.69-.72-1.11-.25-.42-.5-.89-.75-1.41Z"/>
        <path class="cls-5" d="m353.1,118.07c-1.7.57-3.88.86-6.54.89-1.34.02-2.41.02-3.22,0-.81-.02-1.35-.05-1.62-.07-.18-.04-.35-.31-.51-.78-.48-1.45-.31-2.21.51-2.28l1.46-.03,1.87-2.01c.02-2.18-.06-4.59-.24-7.22-.18-2.63-.47-5.48-.85-8.55-.05-.45-.08-.82-.12-1.09s-.07-.45-.12-.54c-.09-.32.18-1.09.82-2.32.07-.14.16-.21.27-.21s.2.08.27.24c.48,1.23.95,2.08,1.43,2.55.27.25.27.54,0,.89l-.58.75c-.11.14-.15.39-.1.75.59,4.63.83,7.9.72,9.81-.02.36-.09.88-.2,1.55-.11.67-.26,1.48-.44,2.44,2.79-2.34,4.87-3.83,6.23-4.46,1.43-.66,2.49-.87,3.17-.65,1.07.29,1.92,1.1,2.55,2.42.11.2.14.53.07.99-.32,1.75-1.09,3.17-2.32,4.26.86.23,1.7.38,2.52.46.82.08,1.61.07,2.38-.02.32-.05.52.16.61.61.2.89.19,1.51-.03,1.87-.25.39-.44.58-.58.58-2.23.18-4.7-.09-7.42-.82Zm1.12-6.23c-1.43-1.07-3.42-.73-5.96,1.02-.64.43-1.24.9-1.82,1.4-.58.5-1.13,1.01-1.65,1.53,4.06-.23,7.63-1.11,10.69-2.66-.23-.41-.65-.84-1.26-1.29Zm-1.4-11.58c.05-.07.14-.09.27-.07.91.32,1.71.79,2.42,1.43.09.09.1.18.03.27l-1.6,2.59c-.07.11-.18.1-.34-.03-.09-.07-.33-.23-.72-.48s-.94-.59-1.67-1.02c-.11-.07-.14-.14-.07-.2l1.67-2.49Z"/>
        <path class="cls-5" d="m368.8,115.83c.41.11.62.24.65.37.04.18.04.46,0,.82-.16,1.25-.38,1.87-.65,1.87-1.23,0-2.45-.69-3.68-2.08-1.04,1.25-2.59,1.94-4.63,2.08-.23,0-.38-.17-.44-.51l-.27-1.43c-.07-.2-.02-.44.14-.71.14-.23.33-.36.58-.41,2.5-.21,4.18-.95,5.04-2.25.11-.18.27-.27.48-.27s.31.1.31.31c0,.18.02.32.07.41.75,1.02,1.55,1.62,2.42,1.81Zm-4.7-13.38c.04-.07.14-.09.27-.07.91.32,1.71.79,2.42,1.43.09.09.1.18.03.27l-1.6,2.59c-.07.11-.18.1-.34-.03-.09-.07-.33-.23-.72-.48s-.94-.59-1.67-1.02c-.11-.07-.14-.14-.07-.2l1.67-2.49Z"/>
        <path class="cls-5" d="m376.73,108.06c1.54.05,2.6,1.93,3.17,5.65.04.25.01.44-.1.58l-1.87,2.35c-.16.23-.38.31-.65.24-1.75-.5-3.29-1.32-4.63-2.45-1.07,2.97-2.35,4.46-3.85,4.46-.16,0-.33-.24-.51-.71-.36-1.13-.38-1.86-.03-2.18.14-.11.32-.17.54-.17,1.04-.02,2.04-.66,3-1.91.32-.43,1.06-1.68,2.21-3.75.79-1.41,1.7-2.11,2.72-2.11Zm-2.45,3.34c.79.77,1.82,1.29,3.06,1.57.02-.98-.31-1.62-.99-1.94-.68-.32-1.37-.19-2.08.38Z"/>
      </g>
      <g>
        <polyline class="cls-2" points="44.33 79.78 11.12 73.51 44.85 71.45 14.24 57.12 47.43 63.52 21.34 42.03 51.9 56.48 31.98 29.18 57.98 50.77 45.47 19.37 65.29 46.75 60.98 13.23 73.36 44.68 77.54 11.14 81.71 44.68 94.09 13.23 89.78 46.75 109.6 19.37 97.09 50.77 123.09 29.18 103.17 56.48 133.73 42.03 107.64 63.52 140.83 57.12 110.22 71.45 143.95 73.51 110.74 79.78"/>
        <g>
          <g>
            <g>
              <path class="cls-4" d="m77.52,144.88c-.84,0-1.72-.02-2.59-.07-2.32-.12-4.65-.41-6.93-.86-3.69-.73-7.31-1.89-10.74-3.46-8.13-3.71-15.09-9.58-20.14-16.98-5.17-7.58-8.08-16.44-8.42-25.62-.03-.59-.04-1.21-.04-1.87l.13-19.85,3.14.02-.13,19.84c0,.61.01,1.18.04,1.73.65,17.38,10.89,32.66,26.73,39.88,3.21,1.47,6.59,2.56,10.04,3.24,2.13.42,4.31.69,6.48.8.82.04,1.64.06,2.43.06.04,0,.08,0,.11,0h.09c2.65,0,5.31-.25,7.9-.71,3.7-.66,7.3-1.78,10.72-3.33,15.64-7.07,25.92-22.09,26.84-39.19.05-.82.07-1.66.07-2.49l.03-20.02h3.14s-.03,20.03-.03,20.03c0,.89-.02,1.79-.07,2.66-.98,18.28-11.97,34.33-28.68,41.89-3.66,1.65-7.51,2.85-11.46,3.55-2.75.49-5.58.75-8.41.76-.08,0-.16,0-.24,0Z"/>
              <g>
                <path class="cls-4" d="m54.97,139.17c-.02-.68-.04-1.38-.04-2.07,0-10.59,2.73-21.04,7.9-30.22,1.84-3.27,3.98-6.38,6.38-9.25,2.38-2.86,5.03-5.51,7.87-7.88,11.05-9.24,25.08-14.32,39.51-14.32,2.87,0,5.77.2,8.62.6l-.81,5.83c-2.59-.36-5.22-.54-7.81-.54-13.05,0-25.74,4.6-35.74,12.96-2.57,2.14-4.97,4.54-7.12,7.13-2.17,2.6-4.11,5.41-5.77,8.36-4.67,8.3-7.15,17.75-7.15,27.33,0,.62.01,1.24.03,1.85l-5.89.21Z"/>
                <path class="cls-4" d="m65.37,142.73c-.2-1.86-.3-3.76-.3-5.63,0-6.95,1.36-13.68,4.04-20.02h0s.25-.58.25-.58c1.7-3.9,3.89-7.58,6.5-10.94,2.33-3.01,5.01-5.77,7.95-8.2,9.2-7.6,20.85-11.78,32.79-11.78,2.94,0,5.87.25,8.72.74l-1,5.81c-2.52-.43-5.11-.65-7.72-.65-10.58,0-20.9,3.7-29.04,10.43-2.61,2.16-4.98,4.61-7.05,7.27-2.26,2.91-4.15,6.08-5.65,9.45l-.11.25c-2.52,5.76-3.79,11.9-3.79,18.24,0,1.66.09,3.34.27,4.99l-5.86.63Z"/>
                <path class="cls-4" d="m74.81,143.77c-.35-2.18-.52-4.43-.52-6.67,0-7.85,2.17-15.52,6.27-22.17,2.2-3.58,4.93-6.81,8.11-9.61,7.72-6.79,17.64-10.53,27.93-10.53,2.96,0,5.91.31,8.76.91l-1.22,5.76c-2.45-.52-4.99-.78-7.54-.78-8.86,0-17.4,3.22-24.04,9.06-2.73,2.41-5.08,5.19-6.98,8.27-3.53,5.72-5.39,12.32-5.39,19.08,0,1.93.15,3.86.45,5.74l-5.82.93Z"/>
              </g>
              <g>
                <path class="cls-4" d="m76.94,96.91c-10.42-9.94-24.09-15.42-38.5-15.42-2.6,0-5.22.18-7.81.54l-.81-5.83c2.85-.4,5.75-.6,8.62-.6,15.93,0,31.04,6.05,42.56,17.04l-4.07,4.26Z"/>
                <path class="cls-4" d="m69.45,104.42c-8.41-7.95-19.42-12.33-31.01-12.33-2.59,0-5.18.22-7.72.66l-1-5.81c2.86-.49,5.79-.74,8.71-.74,13.1,0,25.55,4.95,35.06,13.94l-4.05,4.28Z"/>
                <path class="cls-4" d="m63.29,113.13c-6.58-6.77-15.4-10.5-24.85-10.5-2.56,0-5.09.28-7.53.82l-1.29-5.75c2.87-.64,5.83-.97,8.82-.97,11.05,0,21.37,4.36,29.07,12.29l-4.22,4.1Z"/>
                <polygon class="cls-4" points="69.11 120.44 69.11 120.43 75 120.43 69.11 120.44"/>
              </g>
            </g>
            <g>
              <path class="cls-4" d="m77.52,143.51c-.82,0-1.67-.02-2.52-.07-2.25-.12-4.52-.4-6.73-.84-3.59-.71-7.1-1.84-10.43-3.36-7.9-3.6-14.67-9.31-19.58-16.51-5.02-7.36-7.85-15.97-8.18-24.9-.03-.58-.04-1.18-.04-1.82l.13-19.84h.39s-.13,19.84-.13,19.84c0,.64.01,1.23.04,1.8.67,17.89,11.22,33.63,27.53,41.06,3.31,1.51,6.79,2.63,10.35,3.34,2.2.43,4.44.71,6.68.83.85.04,1.69.07,2.5.07.06,0,.13,0,.19,0,2.74,0,5.48-.25,8.14-.73,3.81-.68,7.52-1.83,11.05-3.43,16.11-7.28,26.7-22.75,27.64-40.37.05-.84.07-1.71.07-2.57l.03-20.02h.39s-.03,20.02-.03,20.02c0,.87-.02,1.74-.07,2.59-.95,17.77-11.63,33.37-27.87,40.71-3.55,1.61-7.3,2.77-11.14,3.45-2.69.48-5.45.73-8.2.74-.06,0-.13,0-.2,0Z"/>
              <g>
                <path class="cls-4" d="m57.72,139.07c-.02-.65-.04-1.31-.04-1.97,0-10.12,2.61-20.11,7.55-28.87,1.76-3.12,3.81-6.09,6.1-8.83,2.27-2.73,4.81-5.26,7.52-7.53,10.56-8.83,23.97-13.69,37.75-13.69,2.74,0,5.52.19,8.25.57l-.05.39c-2.71-.38-5.47-.57-8.19-.57-13.69,0-27.01,4.83-37.5,13.6-2.7,2.25-5.21,4.76-7.47,7.48-2.27,2.72-4.31,5.67-6.05,8.77-4.91,8.71-7.5,18.62-7.5,28.68,0,.65.01,1.31.04,1.95h-.39Z"/>
                <path class="cls-4" d="m68.11,142.43c-.19-1.77-.29-3.56-.29-5.33,0-6.76,1.36-13.31,4.04-19.46l.02-.04c1.61-3.69,3.68-7.18,6.15-10.36,2.21-2.85,4.74-5.46,7.53-7.77,8.71-7.19,19.73-11.15,31.04-11.15,2.78,0,5.56.23,8.25.7l-.07.39c-2.67-.46-5.42-.69-8.19-.69-11.22,0-22.16,3.93-30.79,11.06-2.77,2.29-5.28,4.88-7.47,7.71-2.44,3.15-4.49,6.59-6.09,10.24l-.02.04c-2.67,6.11-4.02,12.62-4.02,19.34,0,1.76.1,3.54.29,5.29l-.39.04Z"/>
                <path class="cls-4" d="m77.53,143.34c-.32-2.04-.49-4.14-.49-6.24,0-7.34,2.03-14.51,5.86-20.73,2.06-3.35,4.61-6.37,7.58-8.99,7.22-6.35,16.49-9.84,26.11-9.84,2.77,0,5.52.29,8.19.85l-.08.38c-2.64-.56-5.37-.84-8.11-.84-9.53,0-18.71,3.46-25.86,9.74-2.94,2.59-5.47,5.58-7.51,8.9-3.8,6.15-5.8,13.25-5.8,20.52,0,2.08.16,4.15.48,6.17l-.39.06Z"/>
              </g>
              <g>
                <path class="cls-4" d="m78.84,94.92c-10.93-10.43-25.28-16.18-40.39-16.18-2.72,0-5.48.19-8.19.57l-.05-.39c2.73-.38,5.5-.57,8.24-.57,15.22,0,29.66,5.78,40.67,16.28l-.27.28Z"/>
                <path class="cls-4" d="m71.34,102.42c-8.92-8.43-20.61-13.08-32.9-13.08-2.74,0-5.5.23-8.18.7l-.07-.39c2.71-.47,5.48-.7,8.25-.7,12.39,0,24.17,4.68,33.17,13.19l-.27.29Z"/>
                <path class="cls-4" d="m65.26,111.22c-7.1-7.31-16.63-11.34-26.82-11.34-2.76,0-5.49.3-8.13.89l-.09-.38c2.67-.6,5.43-.9,8.22-.9,10.3,0,19.92,4.07,27.1,11.46l-.28.27Z"/>
                <polygon class="cls-4" points="71.86 120.44 71.86 120.43 72.25 120.43 71.86 120.44"/>
              </g>
            </g>
          </g>
          <g>
            <g>
              <path class="cls-4" d="m77.52,144.88c-.84,0-1.72-.02-2.59-.07-2.32-.12-4.65-.41-6.93-.86-3.69-.73-7.31-1.89-10.74-3.46-8.13-3.71-15.09-9.58-20.14-16.98-5.17-7.58-8.08-16.44-8.42-25.62-.03-.59-.04-1.21-.04-1.87l.13-19.85,3.14.02-.13,19.84c0,.61.01,1.18.04,1.73.65,17.38,10.89,32.66,26.73,39.88,3.21,1.47,6.59,2.56,10.04,3.24,2.13.42,4.31.69,6.48.8.82.04,1.64.06,2.43.06.04,0,.08,0,.11,0h.09c2.65,0,5.31-.25,7.9-.71,3.7-.66,7.3-1.78,10.72-3.33,15.64-7.07,25.92-22.09,26.84-39.19.05-.82.07-1.66.07-2.49l.03-20.02h3.14s-.03,20.03-.03,20.03c0,.89-.02,1.79-.07,2.66-.98,18.28-11.97,34.33-28.68,41.89-3.66,1.65-7.51,2.85-11.46,3.55-2.75.49-5.58.75-8.41.76-.08,0-.16,0-.24,0Z"/>
              <g>
                <path class="cls-4" d="m54.97,139.17c-.02-.68-.04-1.38-.04-2.07,0-10.59,2.73-21.04,7.9-30.22,1.84-3.27,3.98-6.38,6.38-9.25,2.38-2.86,5.03-5.51,7.87-7.88,11.05-9.24,25.08-14.32,39.51-14.32,2.87,0,5.77.2,8.62.6l-.81,5.83c-2.59-.36-5.22-.54-7.81-.54-13.05,0-25.74,4.6-35.74,12.96-2.57,2.14-4.97,4.54-7.12,7.13-2.17,2.6-4.11,5.41-5.77,8.36-4.67,8.3-7.15,17.75-7.15,27.33,0,.62.01,1.24.03,1.85l-5.89.21Z"/>
                <path class="cls-4" d="m65.37,142.73c-.2-1.86-.3-3.76-.3-5.63,0-6.95,1.36-13.68,4.04-20.02h0s.25-.58.25-.58c1.7-3.9,3.89-7.58,6.5-10.94,2.33-3.01,5.01-5.77,7.95-8.2,9.2-7.6,20.85-11.78,32.79-11.78,2.94,0,5.87.25,8.72.74l-1,5.81c-2.52-.43-5.11-.65-7.72-.65-10.58,0-20.9,3.7-29.04,10.43-2.61,2.16-4.98,4.61-7.05,7.27-2.26,2.91-4.15,6.08-5.65,9.45l-.11.25c-2.52,5.76-3.79,11.9-3.79,18.24,0,1.66.09,3.34.27,4.99l-5.86.63Z"/>
                <path class="cls-4" d="m74.81,143.77c-.35-2.18-.52-4.43-.52-6.67,0-7.85,2.17-15.52,6.27-22.17,2.2-3.58,4.93-6.81,8.11-9.61,7.72-6.79,17.64-10.53,27.93-10.53,2.96,0,5.91.31,8.76.91l-1.22,5.76c-2.45-.52-4.99-.78-7.54-.78-8.86,0-17.4,3.22-24.04,9.06-2.73,2.41-5.08,5.19-6.98,8.27-3.53,5.72-5.39,12.32-5.39,19.08,0,1.93.15,3.86.45,5.74l-5.82.93Z"/>
              </g>
              <g>
                <path class="cls-4" d="m76.94,96.91c-10.42-9.94-24.09-15.42-38.5-15.42-2.6,0-5.22.18-7.81.54l-.81-5.83c2.85-.4,5.75-.6,8.62-.6,15.93,0,31.04,6.05,42.56,17.04l-4.07,4.26Z"/>
                <path class="cls-4" d="m69.45,104.42c-8.41-7.95-19.42-12.33-31.01-12.33-2.59,0-5.18.22-7.72.66l-1-5.81c2.86-.49,5.79-.74,8.71-.74,13.1,0,25.55,4.95,35.06,13.94l-4.05,4.28Z"/>
                <path class="cls-4" d="m63.29,113.13c-6.58-6.77-15.4-10.5-24.85-10.5-2.56,0-5.09.28-7.53.82l-1.29-5.75c2.87-.64,5.83-.97,8.82-.97,11.05,0,21.37,4.36,29.07,12.29l-4.22,4.1Z"/>
                <polygon class="cls-4" points="69.11 120.44 69.11 120.43 75 120.43 69.11 120.44"/>
              </g>
            </g>
            <g>
              <path class="cls-4" d="m77.52,143.51c-.82,0-1.67-.02-2.52-.07-2.25-.12-4.52-.4-6.73-.84-3.59-.71-7.1-1.84-10.43-3.36-7.9-3.6-14.67-9.31-19.58-16.51-5.02-7.36-7.85-15.97-8.18-24.9-.03-.58-.04-1.18-.04-1.82l.13-19.84h.39s-.13,19.84-.13,19.84c0,.64.01,1.23.04,1.8.67,17.89,11.22,33.63,27.53,41.06,3.31,1.51,6.79,2.63,10.35,3.34,2.2.43,4.44.71,6.68.83.85.04,1.69.07,2.5.07.06,0,.13,0,.19,0,2.74,0,5.48-.25,8.14-.73,3.81-.68,7.52-1.83,11.05-3.43,16.11-7.28,26.7-22.75,27.64-40.37.05-.84.07-1.71.07-2.57l.03-20.02h.39s-.03,20.02-.03,20.02c0,.87-.02,1.74-.07,2.59-.95,17.77-11.63,33.37-27.87,40.71-3.55,1.61-7.3,2.77-11.14,3.45-2.69.48-5.45.73-8.2.74-.06,0-.13,0-.2,0Z"/>
              <g>
                <path class="cls-4" d="m57.72,139.07c-.02-.65-.04-1.31-.04-1.97,0-10.12,2.61-20.11,7.55-28.87,1.76-3.12,3.81-6.09,6.1-8.83,2.27-2.73,4.81-5.26,7.52-7.53,10.56-8.83,23.97-13.69,37.75-13.69,2.74,0,5.52.19,8.25.57l-.05.39c-2.71-.38-5.47-.57-8.19-.57-13.69,0-27.01,4.83-37.5,13.6-2.7,2.25-5.21,4.76-7.47,7.48-2.27,2.72-4.31,5.67-6.05,8.77-4.91,8.71-7.5,18.62-7.5,28.68,0,.65.01,1.31.04,1.95h-.39Z"/>
                <path class="cls-4" d="m68.11,142.43c-.19-1.77-.29-3.56-.29-5.33,0-6.76,1.36-13.31,4.04-19.46l.02-.04c1.61-3.69,3.68-7.18,6.15-10.36,2.21-2.85,4.74-5.46,7.53-7.77,8.71-7.19,19.73-11.15,31.04-11.15,2.78,0,5.56.23,8.25.7l-.07.39c-2.67-.46-5.42-.69-8.19-.69-11.22,0-22.16,3.93-30.79,11.06-2.77,2.29-5.28,4.88-7.47,7.71-2.44,3.15-4.49,6.59-6.09,10.24l-.02.04c-2.67,6.11-4.02,12.62-4.02,19.34,0,1.76.1,3.54.29,5.29l-.39.04Z"/>
                <path class="cls-4" d="m77.53,143.34c-.32-2.04-.49-4.14-.49-6.24,0-7.34,2.03-14.51,5.86-20.73,2.06-3.35,4.61-6.37,7.58-8.99,7.22-6.35,16.49-9.84,26.11-9.84,2.77,0,5.52.29,8.19.85l-.08.38c-2.64-.56-5.37-.84-8.11-.84-9.53,0-18.71,3.46-25.86,9.74-2.94,2.59-5.47,5.58-7.51,8.9-3.8,6.15-5.8,13.25-5.8,20.52,0,2.08.16,4.15.48,6.17l-.39.06Z"/>
              </g>
              <g>
                <path class="cls-4" d="m78.84,94.92c-10.93-10.43-25.28-16.18-40.39-16.18-2.72,0-5.48.19-8.19.57l-.05-.39c2.73-.38,5.5-.57,8.24-.57,15.22,0,29.66,5.78,40.67,16.28l-.27.28Z"/>
                <path class="cls-4" d="m71.34,102.42c-8.92-8.43-20.61-13.08-32.9-13.08-2.74,0-5.5.23-8.18.7l-.07-.39c2.71-.47,5.48-.7,8.25-.7,12.39,0,24.17,4.68,33.17,13.19l-.27.29Z"/>
                <path class="cls-4" d="m65.26,111.22c-7.1-7.31-16.63-11.34-26.82-11.34-2.76,0-5.49.3-8.13.89l-.09-.38c2.67-.6,5.43-.9,8.22-.9,10.3,0,19.92,4.07,27.1,11.46l-.28.27Z"/>
                <polygon class="cls-4" points="71.86 120.44 71.86 120.43 72.25 120.43 71.86 120.44"/>
              </g>
            </g>
          </g>
        </g>
      </g>
      <g>
        <text class="cls-1" transform="translate(174.11 89.32) rotate(-90)"><tspan x="0" y="0">ADO</tspan></text>
        <line class="cls-3" x1="169.18" y1="91.21" x2="169.18" y2="120.99"/>
        <line class="cls-3" x1="169.18" y1="24.66" x2="169.18" y2="53.09"/>
      </g>
    </g>
  </g>
</svg>