<?xml version="1.0" encoding="UTF-8"?>
<svg id="Layer_2" data-name="Layer 2" xmlns="http://www.w3.org/2000/svg" viewBox="0 0 668.52 142.5">
  <defs>
    <style>
      .cls-1 {
        stroke-linecap: round;
        stroke-width: 1.34px;
      }

      .cls-1, .cls-2 {
        fill: none;
        stroke: #fff;
        stroke-miterlimit: 10;
      }

      .cls-3 {
        stroke-width: 0px;
      }

      .cls-3, .cls-4 {
        fill: #fff;
      }

      .cls-4 {
        font-family: Montserrat-Bold, Montserrat;
        font-size: 13.38px;
        font-weight: 700;
      }

      .cls-2 {
        stroke-width: 2.7px;
      }
    </style>
  </defs>
  <g id="LOGO_VARIATION" data-name="LOGO VARIATION">
    <g>
      <g>
        <path class="cls-3" d="m181.95,37.09v-12.6h5.21v12.41c0,4.28,1.87,6.04,5.02,6.04s5.02-1.77,5.02-6.04v-12.41h5.14v12.6c0,6.62-3.79,10.29-10.19,10.29s-10.19-3.67-10.19-10.29Z"/>
        <path class="cls-3" d="m217.86,29.44v4.63c-.42-.03-.74-.06-1.12-.06-2.76,0-4.6,1.51-4.6,4.82v8.17h-5.02v-17.3h4.79v2.28c1.22-1.67,3.28-2.54,5.95-2.54Z"/>
        <path class="cls-3" d="m238.41,29.7v17.3h-4.76v-2.06c-1.32,1.51-3.25,2.31-5.37,2.31-4.34,0-7.39-2.44-7.39-7.78v-9.77h5.01v9.03c0,2.89,1.29,4.18,3.5,4.18s3.99-1.48,3.99-4.66v-8.55h5.02Z"/>
        <path class="cls-3" d="m253.81,29.44v4.63c-.42-.03-.74-.06-1.12-.06-2.76,0-4.6,1.51-4.6,4.82v8.17h-5.02v-17.3h4.79v2.28c1.22-1.67,3.28-2.54,5.95-2.54Z"/>
        <path class="cls-3" d="m264.23,40.21l-2.41,2.38v4.4h-5.02v-23.86h5.02v13.5l7.33-6.94h5.98l-7.2,7.33,7.84,9.97h-6.08l-5.47-6.78Z"/>
        <path class="cls-3" d="m293.01,37.12v9.87h-4.69v-2.15c-.93,1.58-2.73,2.41-5.27,2.41-4.05,0-6.46-2.25-6.46-5.24s2.15-5.18,7.43-5.18h3.99c0-2.15-1.29-3.41-3.99-3.41-1.83,0-3.73.61-4.98,1.61l-1.8-3.5c1.9-1.35,4.69-2.09,7.46-2.09,5.27,0,8.33,2.44,8.33,7.68Zm-5.02,4.4v-1.77h-3.44c-2.35,0-3.09.87-3.09,2.03,0,1.25,1.06,2.09,2.83,2.09,1.67,0,3.12-.77,3.7-2.35Z"/>
        <path class="cls-3" d="m327.64,24.49v22.51h-5.21v-9.23h-10.22v9.23h-5.21v-22.51h5.21v8.87h10.22v-8.87h5.21Z"/>
        <path class="cls-3" d="m331.34,38.35c0-5.21,4.02-8.91,9.52-8.91s9.48,3.7,9.48,8.91-3.99,8.91-9.48,8.91-9.52-3.7-9.52-8.91Zm13.92,0c0-2.99-1.9-4.79-4.41-4.79s-4.44,1.8-4.44,4.79,1.93,4.79,4.44,4.79,4.41-1.8,4.41-4.79Z"/>
        <path class="cls-3" d="m364.42,29.44v4.63c-.42-.03-.74-.06-1.12-.06-2.76,0-4.6,1.51-4.6,4.82v8.17h-5.02v-17.3h4.79v2.28c1.22-1.67,3.28-2.54,5.95-2.54Z"/>
        <path class="cls-3" d="m384.97,29.7v17.3h-4.76v-2.06c-1.32,1.51-3.25,2.31-5.37,2.31-4.34,0-7.39-2.44-7.39-7.78v-9.77h5.01v9.03c0,2.89,1.29,4.18,3.5,4.18s3.99-1.48,3.99-4.66v-8.55h5.02Z"/>
        <path class="cls-3" d="m418.86,37.09v9.9h-5.01v-9.13c0-2.8-1.25-4.08-3.28-4.08-2.25,0-3.83,1.45-3.83,4.53v8.68h-5.02v-9.13c0-2.8-1.19-4.08-3.28-4.08-2.22,0-3.79,1.45-3.79,4.53v8.68h-5.02v-17.3h4.79v1.99c1.29-1.48,3.21-2.25,5.43-2.25,2.41,0,4.47.93,5.69,2.83,1.38-1.77,3.63-2.83,6.24-2.83,4.12,0,7.07,2.38,7.07,7.65Z"/>
        <path class="cls-3" d="m438.67,37.12v9.87h-4.69v-2.15c-.93,1.58-2.73,2.41-5.27,2.41-4.05,0-6.46-2.25-6.46-5.24s2.15-5.18,7.43-5.18h3.99c0-2.15-1.29-3.41-3.99-3.41-1.83,0-3.73.61-4.98,1.61l-1.8-3.5c1.9-1.35,4.69-2.09,7.46-2.09,5.27,0,8.33,2.44,8.33,7.68Zm-5.02,4.4v-1.77h-3.44c-2.35,0-3.09.87-3.09,2.03,0,1.25,1.06,2.09,2.83,2.09,1.67,0,3.12-.77,3.7-2.35Z"/>
        <path class="cls-3" d="m453.95,29.44v4.63c-.42-.03-.74-.06-1.12-.06-2.76,0-4.6,1.51-4.6,4.82v8.17h-5.02v-17.3h4.79v2.28c1.22-1.67,3.28-2.54,5.95-2.54Z"/>
        <path class="cls-3" d="m456.33,24.49c0-1.58,1.25-2.8,3.12-2.8s3.12,1.16,3.12,2.7c0,1.67-1.25,2.89-3.12,2.89s-3.12-1.22-3.12-2.8Zm.61,5.21h5.02v17.3h-5.02v-17.3Z"/>
        <path class="cls-3" d="m484.3,37.09v9.9h-5.01v-9.13c0-2.8-1.29-4.08-3.5-4.08-2.41,0-4.15,1.48-4.15,4.66v8.55h-5.02v-17.3h4.79v2.03c1.35-1.48,3.38-2.28,5.72-2.28,4.08,0,7.17,2.38,7.17,7.65Z"/>
        <path class="cls-3" d="m499.99,46.16c-1.03.74-2.54,1.09-4.08,1.09-4.08,0-6.46-2.09-6.46-6.21v-7.11h-2.67v-3.86h2.67v-4.21h5.02v4.21h4.31v3.86h-4.31v7.04c0,1.48.8,2.28,2.15,2.28.74,0,1.48-.23,2.03-.64l1.35,3.54Z"/>
        <path class="cls-3" d="m518.13,37.12v9.87h-4.69v-2.15c-.93,1.58-2.73,2.41-5.27,2.41-4.05,0-6.46-2.25-6.46-5.24s2.15-5.18,7.43-5.18h3.99c0-2.15-1.29-3.41-3.99-3.41-1.83,0-3.73.61-4.98,1.61l-1.8-3.5c1.9-1.35,4.69-2.09,7.46-2.09,5.27,0,8.33,2.44,8.33,7.68Zm-5.02,4.4v-1.77h-3.44c-2.35,0-3.09.87-3.09,2.03,0,1.25,1.06,2.09,2.83,2.09,1.67,0,3.12-.77,3.7-2.35Z"/>
        <path class="cls-3" d="m552.76,40.85c0,3.89-3.09,6.14-9,6.14h-11.64v-22.51h11c5.63,0,8.52,2.35,8.52,5.85,0,2.25-1.16,3.99-2.99,4.95,2.51.8,4.12,2.73,4.12,5.56Zm-15.46-12.44v5.31h5.18c2.54,0,3.92-.9,3.92-2.67s-1.38-2.64-3.92-2.64h-5.18Zm10.22,11.9c0-1.9-1.45-2.8-4.15-2.8h-6.08v5.56h6.08c2.7,0,4.15-.84,4.15-2.76Z"/>
        <path class="cls-3" d="m573.21,39.76h-13.08c.48,2.15,2.32,3.47,4.95,3.47,1.83,0,3.15-.55,4.34-1.67l2.67,2.89c-1.61,1.83-4.02,2.8-7.14,2.8-5.98,0-9.87-3.76-9.87-8.91s3.96-8.91,9.23-8.91,9,3.41,9,8.97c0,.39-.06.93-.1,1.35Zm-13.15-2.93h8.52c-.35-2.19-1.99-3.6-4.24-3.6s-3.92,1.38-4.28,3.6Z"/>
        <path class="cls-3" d="m593.5,39.76h-13.08c.48,2.15,2.32,3.47,4.95,3.47,1.83,0,3.15-.55,4.34-1.67l2.67,2.89c-1.61,1.83-4.02,2.8-7.14,2.8-5.98,0-9.87-3.76-9.87-8.91s3.95-8.91,9.23-8.91,9,3.41,9,8.97c0,.39-.06.93-.1,1.35Zm-13.15-2.93h8.52c-.35-2.19-1.99-3.6-4.24-3.6s-3.92,1.38-4.28,3.6Z"/>
        <path class="cls-3" d="m607.68,29.44v4.63c-.42-.03-.74-.06-1.12-.06-2.76,0-4.6,1.51-4.6,4.82v8.17h-5.02v-17.3h4.79v2.28c1.22-1.67,3.28-2.54,5.95-2.54Z"/>
        <path class="cls-3" d="m625.88,37.12v9.87h-4.69v-2.15c-.93,1.58-2.73,2.41-5.27,2.41-4.05,0-6.46-2.25-6.46-5.24s2.15-5.18,7.43-5.18h3.99c0-2.15-1.29-3.41-3.99-3.41-1.83,0-3.73.61-4.98,1.61l-1.8-3.5c1.9-1.35,4.69-2.09,7.46-2.09,5.27,0,8.33,2.44,8.33,7.68Zm-5.02,4.4v-1.77h-3.44c-2.35,0-3.09.87-3.09,2.03,0,1.25,1.06,2.09,2.83,2.09,1.67,0,3.12-.77,3.7-2.35Z"/>
        <path class="cls-3" d="m648.1,37.09v9.9h-5.01v-9.13c0-2.8-1.29-4.08-3.5-4.08-2.41,0-4.15,1.48-4.15,4.66v8.55h-5.02v-23.86h5.02v8.36c1.35-1.35,3.28-2.06,5.5-2.06,4.08,0,7.17,2.38,7.17,7.65Z"/>
        <path class="cls-3" d="m667.94,37.12v9.87h-4.69v-2.15c-.93,1.58-2.73,2.41-5.27,2.41-4.05,0-6.46-2.25-6.46-5.24s2.15-5.18,7.43-5.18h3.99c0-2.15-1.29-3.41-3.99-3.41-1.83,0-3.73.61-4.98,1.61l-1.8-3.5c1.9-1.35,4.69-2.09,7.46-2.09,5.27,0,8.33,2.44,8.33,7.68Zm-5.02,4.4v-1.77h-3.44c-2.35,0-3.09.87-3.09,2.03,0,1.25,1.06,2.09,2.83,2.09,1.67,0,3.12-.77,3.7-2.35Z"/>
        <path class="cls-3" d="m193.17,72.1h-9.66l-2.08,4.63h-1.91l7.93-17.35h1.81l7.93,17.35h-1.93l-2.08-4.63Zm-.67-1.49l-4.16-9.32-4.16,9.32h8.33Z"/>
        <path class="cls-3" d="m211.64,63.7v11.45c0,4.49-2.21,6.52-6.52,6.52-2.38,0-4.71-.72-6.07-2.01l.89-1.34c1.24,1.12,3.12,1.78,5.13,1.78,3.3,0,4.81-1.51,4.81-4.73v-1.66c-1.09,1.66-2.95,2.53-5.08,2.53-3.72,0-6.54-2.6-6.54-6.34s2.83-6.29,6.54-6.29c2.18,0,4.06.89,5.15,2.6v-2.5h1.69Zm-1.71,6.19c0-2.82-2.08-4.76-4.96-4.76s-4.93,1.93-4.93,4.76,2.06,4.78,4.93,4.78,4.96-1.96,4.96-4.78Z"/>
        <path class="cls-3" d="m223.14,63.6v1.71c-.15,0-.3-.02-.42-.02-2.73,0-4.39,1.73-4.39,4.81v6.64h-1.76v-13.03h1.69v2.55c.82-1.73,2.48-2.65,4.88-2.65Z"/>
        <path class="cls-3" d="m225.92,59.59c0-.67.57-1.24,1.29-1.24s1.29.54,1.29,1.21c0,.72-.54,1.29-1.29,1.29s-1.29-.57-1.29-1.26Zm.4,4.11h1.76v13.03h-1.76v-13.03Z"/>
        <path class="cls-3" d="m231.67,70.22c0-3.89,2.83-6.62,6.72-6.62,2.21,0,4.06.87,5.1,2.58l-1.31.89c-.89-1.31-2.28-1.93-3.79-1.93-2.85,0-4.93,2.03-4.93,5.08s2.08,5.08,4.93,5.08c1.51,0,2.9-.59,3.79-1.91l1.31.89c-1.04,1.69-2.9,2.58-5.1,2.58-3.89,0-6.72-2.75-6.72-6.64Z"/>
        <path class="cls-3" d="m258.68,63.7v13.03h-1.69v-2.38c-.92,1.59-2.6,2.5-4.68,2.5-3.32,0-5.5-1.86-5.5-5.6v-7.56h1.76v7.38c0,2.78,1.44,4.19,3.92,4.19,2.73,0,4.44-1.76,4.44-4.73v-6.84h1.76Z"/>
        <path class="cls-3" d="m263.62,58.35h1.76v18.39h-1.76v-18.39Z"/>
        <path class="cls-3" d="m277.2,75.94c-.69.62-1.73.92-2.75.92-2.45,0-3.82-1.39-3.82-3.79v-7.88h-2.33v-1.49h2.33v-2.85h1.76v2.85h3.96v1.49h-3.96v7.78c0,1.54.79,2.38,2.25,2.38.72,0,1.44-.22,1.93-.67l.62,1.26Z"/>
        <path class="cls-3" d="m292.14,63.7v13.03h-1.69v-2.38c-.92,1.59-2.6,2.5-4.68,2.5-3.32,0-5.5-1.86-5.5-5.6v-7.56h1.76v7.38c0,2.78,1.44,4.19,3.92,4.19,2.73,0,4.44-1.76,4.44-4.73v-6.84h1.76Z"/>
        <path class="cls-3" d="m303.65,63.6v1.71c-.15,0-.3-.02-.42-.02-2.73,0-4.39,1.73-4.39,4.81v6.64h-1.76v-13.03h1.69v2.55c.82-1.73,2.48-2.65,4.88-2.65Z"/>
        <path class="cls-3" d="m316.63,68.66v8.08h-1.69v-2.03c-.79,1.34-2.33,2.16-4.48,2.16-2.95,0-4.76-1.54-4.76-3.79,0-2.01,1.29-3.69,5.03-3.69h4.14v-.79c0-2.23-1.26-3.44-3.69-3.44-1.69,0-3.27.59-4.34,1.54l-.79-1.31c1.31-1.12,3.25-1.76,5.3-1.76,3.37,0,5.28,1.69,5.28,5.06Zm-1.76,4.16v-2.13h-4.09c-2.53,0-3.35.99-3.35,2.33,0,1.51,1.21,2.45,3.3,2.45s3.44-.94,4.14-2.65Z"/>
        <path class="cls-3" d="m321.42,58.35h1.76v18.39h-1.76v-18.39Z"/>
        <path class="cls-3" d="m334.95,59.39h7.06c5.55,0,9.29,3.57,9.29,8.67s-3.74,8.67-9.29,8.67h-7.06v-17.35Zm6.96,15.76c4.61,0,7.58-2.92,7.58-7.09s-2.97-7.09-7.58-7.09h-5.13v14.17h5.13Z"/>
        <path class="cls-3" d="m366.4,70.76h-10.9c.2,2.73,2.28,4.53,5.13,4.53,1.59,0,3-.57,3.99-1.71l.99,1.14c-1.17,1.39-2.97,2.13-5.03,2.13-4.06,0-6.84-2.78-6.84-6.64s2.7-6.62,6.37-6.62,6.32,2.7,6.32,6.62c0,.15-.02.35-.02.54Zm-10.9-1.31h9.24c-.22-2.55-2.08-4.34-4.63-4.34s-4.39,1.78-4.61,4.34Z"/>
        <path class="cls-3" d="m380.73,63.7l-5.8,13.03h-1.81l-5.77-13.03h1.83l4.88,11.1,4.93-11.1h1.73Z"/>
        <path class="cls-3" d="m394.19,70.76h-10.9c.2,2.73,2.28,4.53,5.13,4.53,1.59,0,3-.57,3.99-1.71l.99,1.14c-1.17,1.39-2.97,2.13-5.03,2.13-4.06,0-6.84-2.78-6.84-6.64s2.7-6.62,6.37-6.62,6.32,2.7,6.32,6.62c0,.15-.02.35-.02.54Zm-10.9-1.31h9.24c-.22-2.55-2.08-4.34-4.63-4.34s-4.39,1.78-4.61,4.34Z"/>
        <path class="cls-3" d="m397.81,58.35h1.76v18.39h-1.76v-18.39Z"/>
        <path class="cls-3" d="m403.16,70.22c0-3.87,2.83-6.62,6.64-6.62s6.62,2.75,6.62,6.62-2.8,6.64-6.62,6.64-6.64-2.78-6.64-6.64Zm11.47,0c0-3.05-2.06-5.08-4.83-5.08s-4.86,2.03-4.86,5.08,2.08,5.08,4.86,5.08,4.83-2.03,4.83-5.08Z"/>
        <path class="cls-3" d="m433.23,70.22c0,3.96-2.78,6.64-6.49,6.64-2.08,0-3.87-.89-4.96-2.58v7.26h-1.76v-17.84h1.69v2.58c1.07-1.73,2.87-2.68,5.03-2.68,3.72,0,6.49,2.68,6.49,6.62Zm-1.76,0c0-3.02-2.11-5.08-4.86-5.08s-4.86,2.06-4.86,5.08,2.08,5.08,4.86,5.08,4.86-2.03,4.86-5.08Z"/>
        <path class="cls-3" d="m458.33,69.18v7.56h-1.76v-7.38c0-2.75-1.39-4.16-3.74-4.16-2.68,0-4.36,1.73-4.36,4.71v6.84h-1.76v-7.38c0-2.75-1.39-4.16-3.77-4.16-2.65,0-4.36,1.73-4.36,4.71v6.84h-1.76v-13.03h1.69v2.38c.92-1.56,2.6-2.48,4.78-2.48s3.84.92,4.63,2.75c.94-1.69,2.8-2.75,5.15-2.75,3.17,0,5.25,1.83,5.25,5.58Z"/>
        <path class="cls-3" d="m474.52,70.76h-10.9c.2,2.73,2.28,4.53,5.13,4.53,1.59,0,3-.57,3.99-1.71l.99,1.14c-1.17,1.39-2.97,2.13-5.03,2.13-4.06,0-6.84-2.78-6.84-6.64s2.7-6.62,6.37-6.62,6.32,2.7,6.32,6.62c0,.15-.02.35-.02.54Zm-10.9-1.31h9.24c-.22-2.55-2.08-4.34-4.63-4.34s-4.39,1.78-4.61,4.34Z"/>
        <path class="cls-3" d="m490.14,69.18v7.56h-1.76v-7.38c0-2.75-1.44-4.16-3.92-4.16-2.8,0-4.56,1.73-4.56,4.71v6.84h-1.76v-13.03h1.69v2.4c.94-1.59,2.7-2.5,4.96-2.5,3.17,0,5.35,1.83,5.35,5.58Z"/>
        <path class="cls-3" d="m501.79,75.94c-.69.62-1.73.92-2.75.92-2.45,0-3.82-1.39-3.82-3.79v-7.88h-2.33v-1.49h2.33v-2.85h1.76v2.85h3.96v1.49h-3.96v7.78c0,1.54.79,2.38,2.25,2.38.72,0,1.44-.22,1.93-.67l.62,1.26Z"/>
        <path class="cls-3" d="m510.32,68.06c0-5.06,3.87-8.82,9.12-8.82s9.09,3.74,9.09,8.82-3.89,8.82-9.09,8.82-9.12-3.77-9.12-8.82Zm16.38,0c0-4.14-3.1-7.19-7.26-7.19s-7.31,3.05-7.31,7.19,3.12,7.19,7.31,7.19,7.26-3.05,7.26-7.19Z"/>
        <path class="cls-3" d="m538.84,63.6v1.71c-.15,0-.3-.02-.42-.02-2.73,0-4.39,1.73-4.39,4.81v6.64h-1.76v-13.03h1.69v2.55c.82-1.73,2.48-2.65,4.88-2.65Z"/>
        <path class="cls-3" d="m553.96,63.7v11.45c0,4.49-2.21,6.52-6.52,6.52-2.38,0-4.71-.72-6.07-2.01l.89-1.34c1.24,1.12,3.12,1.78,5.13,1.78,3.3,0,4.81-1.51,4.81-4.73v-1.66c-1.09,1.66-2.95,2.53-5.08,2.53-3.72,0-6.54-2.6-6.54-6.34s2.83-6.29,6.54-6.29c2.18,0,4.06.89,5.15,2.6v-2.5h1.69Zm-1.71,6.19c0-2.82-2.08-4.76-4.96-4.76s-4.93,1.93-4.93,4.76,2.06,4.78,4.93,4.78,4.96-1.96,4.96-4.78Z"/>
        <path class="cls-3" d="m568.73,68.66v8.08h-1.68v-2.03c-.79,1.34-2.33,2.16-4.49,2.16-2.95,0-4.76-1.54-4.76-3.79,0-2.01,1.29-3.69,5.03-3.69h4.14v-.79c0-2.23-1.26-3.44-3.69-3.44-1.68,0-3.27.59-4.34,1.54l-.79-1.31c1.31-1.12,3.25-1.76,5.3-1.76,3.37,0,5.28,1.69,5.28,5.06Zm-1.76,4.16v-2.13h-4.09c-2.53,0-3.34.99-3.34,2.33,0,1.51,1.21,2.45,3.3,2.45s3.44-.94,4.14-2.65Z"/>
        <path class="cls-3" d="m585.51,69.18v7.56h-1.76v-7.38c0-2.75-1.44-4.16-3.92-4.16-2.8,0-4.56,1.73-4.56,4.71v6.84h-1.76v-13.03h1.69v2.4c.94-1.59,2.7-2.5,4.96-2.5,3.17,0,5.35,1.83,5.35,5.58Z"/>
        <path class="cls-3" d="m589.9,59.59c0-.67.57-1.24,1.29-1.24s1.29.54,1.29,1.21c0,.72-.54,1.29-1.29,1.29s-1.29-.57-1.29-1.26Zm.4,4.11h1.76v13.03h-1.76v-13.03Z"/>
        <path class="cls-3" d="m606.16,75.28v1.46h-10.61v-1.16l8.2-10.38h-8.05v-1.49h10.31v1.16l-8.2,10.41h8.35Z"/>
        <path class="cls-3" d="m619.47,68.66v8.08h-1.69v-2.03c-.79,1.34-2.33,2.16-4.48,2.16-2.95,0-4.76-1.54-4.76-3.79,0-2.01,1.29-3.69,5.03-3.69h4.14v-.79c0-2.23-1.26-3.44-3.69-3.44-1.69,0-3.27.59-4.34,1.54l-.79-1.31c1.31-1.12,3.25-1.76,5.3-1.76,3.37,0,5.28,1.69,5.28,5.06Zm-1.76,4.16v-2.13h-4.09c-2.53,0-3.35.99-3.35,2.33,0,1.51,1.21,2.45,3.3,2.45s3.44-.94,4.14-2.65Z"/>
        <path class="cls-3" d="m631.12,75.94c-.69.62-1.73.92-2.75.92-2.45,0-3.82-1.39-3.82-3.79v-7.88h-2.33v-1.49h2.33v-2.85h1.76v2.85h3.96v1.49h-3.96v7.78c0,1.54.79,2.38,2.25,2.38.72,0,1.44-.22,1.93-.67l.62,1.26Z"/>
        <path class="cls-3" d="m633.92,59.59c0-.67.57-1.24,1.29-1.24s1.29.54,1.29,1.21c0,.72-.54,1.29-1.29,1.29s-1.29-.57-1.29-1.26Zm.4,4.11h1.76v13.03h-1.76v-13.03Z"/>
        <path class="cls-3" d="m639.67,70.22c0-3.87,2.83-6.62,6.64-6.62s6.62,2.75,6.62,6.62-2.8,6.64-6.62,6.64-6.64-2.78-6.64-6.64Zm11.47,0c0-3.05-2.06-5.08-4.83-5.08s-4.86,2.03-4.86,5.08,2.08,5.08,4.86,5.08,4.83-2.03,4.83-5.08Z"/>
        <path class="cls-3" d="m668.52,69.18v7.56h-1.76v-7.38c0-2.75-1.44-4.16-3.92-4.16-2.8,0-4.56,1.73-4.56,4.71v6.84h-1.76v-13.03h1.69v2.4c.94-1.59,2.7-2.5,4.96-2.5,3.17,0,5.35,1.83,5.35,5.58Z"/>
        <path class="cls-3" d="m185.36,96.23c.04-.07.13-.09.27-.07.45.16.87.35,1.26.57.39.22.76.49,1.12.8.09.09.1.19.03.3l-1.61,2.55c-.04.07-.15.04-.3-.07-.07-.07-.26-.2-.57-.39-.31-.19-.76-.45-1.34-.79l-1.27,1.98c-.07.11-.18.1-.33-.03-.09-.07-.32-.22-.7-.47-.38-.25-.93-.58-1.64-1-.09-.07-.1-.13-.03-.2l1.64-2.44c.04-.07.13-.09.27-.07.38.11.74.26,1.07.45.33.19.65.41.94.65l1.21-1.78Zm2.68,6c.29-.4.47-.31.54.27.02.22.08.66.17,1.31.09.65.2,1.53.33,2.65.13,1.09.24,1.97.32,2.63.08.66.13,1.09.15,1.29.18,1.81.56,2.89,1.14,3.25.33.25.83.35,1.47.3.4,0,.64.23.7.7.07.49.02.99-.13,1.51-.16.49-.35.76-.57.8-1.25.09-2.18-.22-2.78-.94-.63-.76-1.05-2.09-1.27-3.99-.62,1.18-1.27,1.91-1.94,2.18-.49.18-1.17.19-2.04.03-.94-.18-1.6-.42-1.98-.74-.42-.36-.6-.75-.54-1.17.07-.49.28-1.09.64-1.81.38-.76.67-1.24.87-1.44,1.18-1.14,2.59-2.14,4.22-3.01-.07-.92-.1-1.6-.1-2.04s.1-.8.3-1.07l.5-.7Zm-.47,5.86c-1.74.49-2.99,1.24-3.75,2.24-.09.13-.06.25.1.33.45.22.97.35,1.57.38.6.03,1.28-.03,2.04-.18.11-.02.23-.1.37-.23-.02-.36-.06-.75-.12-1.17-.06-.42-.13-.88-.22-1.37Z"/>
        <path class="cls-3" d="m203.45,111.47l-.9,2.01c-.16.29-.3.48-.44.57-.67.49-1.44.92-2.31,1.29-.87.37-1.83.7-2.88.99-2.03.56-3.62.76-4.76.6-.56-.11-.79-.65-.7-1.61.09-.87.28-1.34.57-1.41h.13c.33.04.66.04.97,0-.6-.76-.96-1.69-1.07-2.78-.2-1.99.3-3.56,1.51-4.72,1.34-1.32,2.62-2.09,3.85-2.31,1.25-.25,2.86.5,4.82,2.24.27.22.31.48.13.77-.16.27-.39.33-.7.2-2.1-.8-4.21-.83-6.33-.07-.94.33-1.49.75-1.64,1.24-.18.51.11,1.36.87,2.54.8,1.25,1.52,1.94,2.14,2.08,1.41.29,2.82-.02,4.25-.94l.97-.67c.74-.51,1.21-.67,1.41-.47.13.13.17.28.1.44Z"/>
        <path class="cls-3" d="m208.21,94.49c.47-1.09.77-1.12.9-.07l.77,8.21c.85,7.39.75,12.08-.3,14.07-.16.27-.28.33-.37.2-.09-.11-.13-.3-.13-.57.04-1.88-.09-3.99-.4-6.33,0-.09-.23-2.21-.7-6.36l-.74-6.06c-.04-.45,0-.83.13-1.14l.84-1.94Z"/>
        <path class="cls-3" d="m220.74,107.59c.02-.09.05-.15.1-.17.11-.04.28.04.5.27.87.89,1.52,2.09,1.94,3.58.45,1.54.6,3.04.47,4.49-.27,1.96-1.05,3.77-2.34,5.43-1.3,1.67-2.99,2.78-5.09,3.32-.54.16-1.07.14-1.61-.03-1.3-.45-2.35-.83-3.17-1.16-.81-.32-1.38-.59-1.69-.79-.09-.07-.13-.13-.13-.2,0-.09.03-.17.1-.23s.17-.08.3-.03c.78.22,1.5.37,2.14.45.65.08,1.25.08,1.81.02.56-.07,1.16-.23,1.79-.49.64-.26,1.31-.62,2.03-1.09,2.12-1.36,3.67-2.97,4.66-4.82.09-.13.11-.31.07-.54-.33-1.18-1.21-2.65-2.61-4.39-.07-.11-.09-.2-.07-.27l.8-3.35Z"/>
        <path class="cls-3" d="m235.31,109.86c.38.47.65,1.15.8,2.04.16.87.2,1.78.13,2.71-.07.87-.4,2.03-1,3.48-.83,2.01-2.11,3.54-3.85,4.59-.87.54-1.82.84-2.85.91-1.05.07-2.8-.68-5.26-2.25-.16-.11-.22-.25-.2-.4.02-.16.16-.2.4-.13,3.15,1.07,6.05.49,8.71-1.74,1.29-1.09,2.3-2.39,3.01-3.89.11-.22.13-.5.07-.84-.07-.38-.47-.92-1.21-1.61-.09-.09-.1-.23-.03-.44l.8-2.38c.04-.13.11-.2.2-.2.11,0,.2.04.27.13Zm-3.92-10.38c.04-.07.13-.09.27-.07.89.31,1.69.78,2.38,1.41.09.09.1.18.03.27l-1.57,2.55c-.07.11-.18.1-.33-.03-.09-.07-.32-.22-.7-.47s-.93-.58-1.64-1c-.11-.07-.13-.13-.07-.2l1.64-2.45Z"/>
        <path class="cls-3" d="m237.95,91.04c.11,0,.2.09.27.27.07.2.31.55.74,1.04.22.25.44.47.64.69.2.21.4.4.6.55.25.2.23.51-.03.94l-.87,1.31c.04.54.15,1.34.32,2.41.17,1.07.36,2.43.59,4.09.25,1.63.41,3.01.5,4.15.09,1.14.11,2.03.07,2.68-.18,2.68-1.2,4.29-3.05,4.82-.27.09-.52.15-.75.17-.23.02-.45.02-.65,0-.62-.07-1.08-.64-1.37-1.71-.29-1.07-.33-1.91-.13-2.51.04-.13.11-.2.2-.2.11,0,.2.04.27.13.54.45,1.24.66,2.11.64.92-.04,1.64-.27,2.18-.67.07-.76-.35-3.86-1.24-9.31l-.67-4.05c-.11-.74-.25-1.4-.4-1.98-.09-.31-.15-.58-.18-.79-.03-.21-.06-.36-.08-.45-.04-.25-.02-.45.07-.6l.67-1.44c.07-.11.14-.17.23-.17Z"/>
        <path class="cls-3" d="m245.86,94.49c.47-1.09.77-1.12.9-.07l.77,8.21c.85,7.39.75,12.08-.3,14.07-.16.27-.28.33-.37.2-.09-.11-.13-.3-.13-.57.04-1.88-.09-3.99-.4-6.33,0-.09-.23-2.21-.7-6.36l-.74-6.06c-.04-.45,0-.83.13-1.14l.84-1.94Z"/>
        <path class="cls-3" d="m265.82,96.23c.04-.07.13-.09.27-.07.45.16.87.35,1.26.57.39.22.76.49,1.12.8.09.09.1.19.03.3l-1.61,2.55c-.04.07-.15.04-.3-.07-.07-.07-.26-.2-.57-.39-.31-.19-.76-.45-1.34-.79l-1.27,1.98c-.07.11-.18.1-.33-.03-.09-.07-.32-.22-.7-.47-.38-.25-.93-.58-1.64-1-.09-.07-.1-.13-.03-.2l1.64-2.44c.04-.07.13-.09.27-.07.38.11.74.26,1.07.45.33.19.65.41.94.65l1.21-1.78Zm2.68,6c.29-.4.47-.31.54.27.02.22.08.66.17,1.31.09.65.2,1.53.33,2.65.13,1.09.24,1.97.32,2.63.08.66.13,1.09.15,1.29.18,1.81.56,2.89,1.14,3.25.33.25.83.35,1.47.3.4,0,.64.23.7.7.07.49.02.99-.13,1.51-.16.49-.35.76-.57.8-1.25.09-2.18-.22-2.78-.94-.63-.76-1.05-2.09-1.27-3.99-.62,1.18-1.27,1.91-1.94,2.18-.49.18-1.17.19-2.04.03-.94-.18-1.6-.42-1.98-.74-.42-.36-.6-.75-.54-1.17.07-.49.28-1.09.64-1.81.38-.76.67-1.24.87-1.44,1.18-1.14,2.59-2.14,4.22-3.01-.07-.92-.1-1.6-.1-2.04s.1-.8.3-1.07l.5-.7Zm-.47,5.86c-1.74.49-2.99,1.24-3.75,2.24-.09.13-.06.25.1.33.45.22.97.35,1.57.38.6.03,1.28-.03,2.04-.18.11-.02.23-.1.37-.23-.02-.36-.06-.75-.12-1.17-.06-.42-.13-.88-.22-1.37Z"/>
        <path class="cls-3" d="m280.79,113.92c.4.11.61.23.64.37.04.18.04.45,0,.8-.16,1.23-.37,1.84-.64,1.84-1.21,0-2.41-.68-3.62-2.04-1.03,1.23-2.55,1.91-4.56,2.04-.22,0-.37-.17-.44-.5l-.27-1.41c-.07-.2-.02-.44.13-.7.13-.22.32-.36.57-.4,2.46-.2,4.11-.94,4.96-2.21.11-.18.27-.27.47-.27s.3.1.3.3c0,.18.02.31.07.4.74,1,1.53,1.6,2.38,1.78Zm-2.55,5.16c.04-.07.13-.09.27-.07.45.16.87.35,1.26.57.39.22.76.49,1.12.8.09.09.1.19.03.3l-1.61,2.54c-.04.07-.15.04-.3-.07-.07-.07-.26-.2-.57-.39s-.76-.45-1.34-.79l-1.27,1.98c-.07.11-.18.1-.33-.03-.09-.07-.32-.22-.7-.47s-.93-.58-1.64-1c-.09-.07-.1-.13-.03-.2l1.64-2.45c.04-.07.13-.09.27-.07.38.11.74.26,1.07.45s.65.41.94.65l1.21-1.78Z"/>
        <path class="cls-3" d="m285.15,107.99c-.02.6.26,1.4.84,2.38.22.36.46.67.72.94.26.27.53.49.82.67.11.07.3.14.57.22.27.08.61.17,1.04.28.33.09.62.18.87.29s.47.21.67.32c.38.18.57.48.57.9-.02,1.16-.12,2.08-.3,2.75-.07.36-.25.45-.54.27-2.08-1.14-3.44-1.71-4.09-1.71s-1.56.27-2.75.8c-.58.27-1.1.47-1.56.62-.46.15-.87.22-1.22.22-.27,0-.48-.25-.64-.74-.16-.51-.19-1.02-.1-1.51.09-.49.33-.75.74-.77,1.81-.16,3.15-.54,4.02-1.14-.92-1.65-1.09-3.37-.54-5.16.62-1.41.92-1.28.87.37Z"/>
        <path class="cls-3" d="m285.01,96.53c.04-.07.13-.09.27-.07.89.31,1.69.78,2.38,1.41.09.09.1.18.03.27l-1.57,2.55c-.07.11-.18.1-.33-.03-.09-.07-.32-.22-.7-.47-.38-.25-.93-.58-1.64-1-.11-.07-.13-.13-.07-.2l1.64-2.45Zm8.11,9.21c.36,0,.44.45.23,1.34-.2.85-.43,1.36-.7,1.54-.13.04-.23.07-.3.07-1.03-.04-2.22-.95-3.58-2.71-.25-.29-.61-.37-1.1-.23-1.03.25-1.91.8-2.65,1.67-.45.51-.7.67-.77.47-.02-.04-.02-.11,0-.2.02-.02.03-.04.03-.07.29-1.03.77-1.92,1.44-2.68,1.18-1.34,2.26-2.01,3.22-2.01.56,0,1.02.31,1.37.94.8,1.25,1.74,1.88,2.81,1.88Z"/>
        <path class="cls-3" d="m296.87,93.28c.04-.07.13-.09.27-.07.45.16.87.35,1.26.57.39.22.76.49,1.12.8.09.09.1.19.03.3l-1.61,2.55c-.04.07-.15.04-.3-.07-.07-.07-.26-.2-.57-.38s-.76-.45-1.34-.79l-1.27,1.98c-.07.11-.18.1-.33-.03-.09-.07-.32-.22-.7-.47-.38-.25-.93-.58-1.64-1-.09-.07-.1-.13-.03-.2l1.64-2.45c.04-.07.13-.09.27-.07.38.11.74.26,1.07.45s.65.41.94.65l1.21-1.78Zm-4.92,15.07c-.02-.11-.02-.29.02-.54.03-.25.09-.56.18-.94.2-.76.53-1.14.97-1.14s.86-.22,1.24-.67c.18-.22.35-.47.52-.74.17-.27.31-.57.42-.9.09-.29.25-.39.47-.3.22.09.3.27.23.54-.38,1.72-.78,2.9-1.21,3.55-.65,1.05-1.46,1.54-2.45,1.47-.25-.04-.38-.16-.4-.33Z"/>
        <path class="cls-3" d="m313.79,96.23c.04-.07.13-.09.27-.07.45.16.87.35,1.26.57.39.22.76.49,1.12.8.09.09.1.19.03.3l-1.61,2.55c-.04.07-.15.04-.3-.07-.07-.07-.26-.2-.57-.39-.31-.19-.76-.45-1.34-.79l-1.27,1.98c-.07.11-.18.1-.33-.03-.09-.07-.32-.22-.7-.47-.38-.25-.93-.58-1.64-1-.09-.07-.1-.13-.03-.2l1.64-2.44c.04-.07.13-.09.27-.07.38.11.74.26,1.07.45.33.19.65.41.94.65l1.21-1.78Zm2.68,6c.29-.4.47-.31.54.27.02.22.08.66.17,1.31.09.65.2,1.53.33,2.65.13,1.09.24,1.97.32,2.63.08.66.13,1.09.15,1.29.18,1.81.56,2.89,1.14,3.25.33.25.83.35,1.47.3.4,0,.64.23.7.7.07.49.02.99-.13,1.51-.16.49-.35.76-.57.8-1.25.09-2.18-.22-2.78-.94-.63-.76-1.05-2.09-1.27-3.99-.62,1.18-1.27,1.91-1.94,2.18-.49.18-1.17.19-2.04.03-.94-.18-1.6-.42-1.98-.74-.42-.36-.6-.75-.54-1.17.07-.49.28-1.09.64-1.81.38-.76.67-1.24.87-1.44,1.18-1.14,2.59-2.14,4.22-3.01-.07-.92-.1-1.6-.1-2.04s.1-.8.3-1.07l.5-.7Zm-.47,5.86c-1.74.49-2.99,1.24-3.75,2.24-.09.13-.06.25.1.33.45.22.97.35,1.57.38.6.03,1.28-.03,2.04-.18.11-.02.23-.1.37-.23-.02-.36-.06-.75-.12-1.17-.06-.42-.13-.88-.22-1.37Z"/>
        <path class="cls-3" d="m328.06,108.56c.13-.07.23-.04.3.07.8,1.21,1.88,2.34,3.22,3.42,1.36,1.09,2.88,1.72,4.56,1.88.42.02.64.3.64.84,0,1.45-.21,2.18-.64,2.18-1.52,0-3.09-.56-4.72-1.67-.11,1.25-.25,1.95-.4,2.11-.18.18-.39.27-.64.27-2.52-.2-4.61-1.31-6.26-3.32-.07-.09-.15-.08-.23.03-1.12,1.67-2.21,2.53-3.28,2.58-.25,0-.41-.18-.5-.54-.27-1-.26-1.72.03-2.14.16-.22.31-.33.47-.33,2.1-.07,3.38-.6,3.85-1.61.98-1.99,2.19-3.24,3.62-3.75Zm-.13,2.48c-.05-.07-.12-.09-.24-.07-.67.16-1.15.44-1.44.84-.11.16-.1.28.03.37.4.33.84.63,1.32.89.48.26,1,.48,1.56.65.16.04.25.04.28,0,.03-.04,0-.11-.08-.2-.22-.31-.46-.67-.7-1.09-.25-.41-.49-.88-.74-1.39Z"/>
        <path class="cls-3" d="m347.28,116.13c-1.67.56-3.82.85-6.43.87-1.32.02-2.37.02-3.17,0-.79-.02-1.32-.04-1.59-.07-.18-.04-.35-.3-.5-.77-.47-1.43-.3-2.18.5-2.24l1.44-.03,1.84-1.98c.02-2.14-.06-4.51-.23-7.1s-.46-5.39-.84-8.41c-.04-.45-.08-.8-.12-1.07-.03-.27-.07-.45-.12-.54-.09-.31.18-1.07.8-2.28.07-.13.16-.2.27-.2s.2.08.27.23c.47,1.21.94,2.04,1.41,2.51.27.25.27.54,0,.87l-.57.74c-.11.13-.15.38-.1.74.58,4.55.82,7.77.7,9.65-.02.36-.09.87-.2,1.52-.11.66-.26,1.46-.44,2.4,2.75-2.3,4.79-3.76,6.13-4.39,1.41-.65,2.44-.86,3.11-.64,1.05.29,1.89,1.08,2.51,2.38.11.2.13.53.07.97-.31,1.72-1.07,3.12-2.28,4.19.85.22,1.67.37,2.48.45.8.08,1.59.07,2.34-.02.31-.04.51.16.6.6.2.87.19,1.49-.03,1.84-.25.38-.44.57-.57.57-2.19.18-4.62-.09-7.3-.8Zm1.11-6.13c-1.41-1.05-3.36-.71-5.86,1-.62.42-1.22.88-1.79,1.37-.57.49-1.11.99-1.62,1.51,4-.22,7.5-1.09,10.52-2.61-.22-.4-.64-.83-1.24-1.27Zm-1.37-11.39c.04-.07.13-.09.27-.07.89.31,1.69.78,2.38,1.41.09.09.1.18.03.27l-1.57,2.54c-.07.11-.18.1-.33-.03-.09-.07-.32-.22-.7-.47-.38-.25-.93-.58-1.64-1-.11-.07-.13-.13-.07-.2l1.64-2.45Z"/>
        <path class="cls-3" d="m362.72,113.92c.4.11.61.23.64.37.04.18.04.45,0,.8-.16,1.23-.37,1.84-.64,1.84-1.21,0-2.41-.68-3.62-2.04-1.03,1.23-2.55,1.91-4.56,2.04-.22,0-.37-.17-.44-.5l-.27-1.41c-.07-.2-.02-.44.13-.7.13-.22.32-.36.57-.4,2.46-.2,4.11-.94,4.96-2.21.11-.18.27-.27.47-.27s.3.1.3.3c0,.18.02.31.07.4.74,1,1.53,1.6,2.38,1.78Zm-4.62-13.16c.04-.07.13-.09.27-.07.89.31,1.69.78,2.38,1.41.09.09.1.18.03.27l-1.57,2.55c-.07.11-.18.1-.33-.03-.09-.07-.32-.22-.7-.47-.38-.25-.93-.58-1.64-1-.11-.07-.13-.13-.07-.2l1.64-2.45Z"/>
        <path class="cls-3" d="m370.53,106.28c1.52.04,2.56,1.9,3.12,5.56.04.25.01.43-.1.57l-1.84,2.31c-.16.22-.37.3-.64.23-1.72-.49-3.24-1.29-4.56-2.41-1.05,2.93-2.31,4.39-3.79,4.39-.16,0-.32-.23-.5-.7-.36-1.12-.37-1.83-.03-2.14.13-.11.31-.17.54-.17,1.03-.02,2.01-.65,2.95-1.88.31-.42,1.04-1.65,2.18-3.68.78-1.38,1.67-2.08,2.68-2.08Zm-2.41,3.28c.78.76,1.79,1.27,3.01,1.54.02-.96-.3-1.6-.97-1.91s-1.35-.19-2.04.37Z"/>
      </g>
      <g>
        <polyline class="cls-2" points="43.6 78.46 10.93 72.3 44.11 70.28 14.01 56.18 46.65 62.47 20.99 41.34 51.04 55.55 31.45 28.69 57.02 49.93 44.73 19.05 64.21 45.98 59.98 13.01 72.16 43.94 76.26 10.95 80.36 43.94 92.54 13.01 88.31 45.98 107.79 19.05 95.5 49.93 121.07 28.69 101.48 55.55 131.52 41.34 105.87 62.47 138.51 56.18 108.41 70.28 141.58 72.3 108.92 78.46"/>
        <g>
          <g>
            <g>
              <path class="cls-3" d="m76.24,142.5c-.83,0-1.69-.02-2.55-.07-2.28-.12-4.57-.4-6.81-.85-3.63-.72-7.19-1.86-10.56-3.4-7.99-3.64-14.84-9.42-19.81-16.7-5.08-7.45-7.95-16.17-8.28-25.2-.03-.58-.04-1.19-.04-1.84l.12-19.52,3.09.02-.12,19.51c0,.6.01,1.16.04,1.7.64,17.09,10.71,32.12,26.29,39.22,3.16,1.44,6.48,2.52,9.88,3.18,2.1.42,4.24.68,6.37.79.81.04,1.62.06,2.39.06.04,0,.08,0,.11,0h.08c2.61,0,5.22-.24,7.77-.7,3.63-.65,7.18-1.75,10.55-3.27,15.38-6.96,25.49-21.73,26.4-38.55.04-.81.07-1.63.07-2.45l.03-19.69h3.09s-.03,19.7-.03,19.7c0,.88-.02,1.76-.07,2.62-.97,17.98-11.77,33.76-28.21,41.2-3.6,1.63-7.39,2.8-11.28,3.5-2.71.49-5.49.74-8.27.75-.08,0-.16,0-.24,0Z"/>
              <g>
                <path class="cls-3" d="m54.06,136.88c-.02-.67-.04-1.36-.04-2.03,0-10.42,2.69-20.7,7.77-29.72,1.81-3.21,3.92-6.27,6.27-9.09,2.34-2.81,4.95-5.42,7.74-7.75,10.87-9.08,24.67-14.09,38.86-14.09,2.82,0,5.68.2,8.48.59l-.8,5.74c-2.54-.35-5.13-.53-7.69-.53-12.83,0-25.32,4.53-35.15,12.74-2.53,2.11-4.89,4.46-7,7.01-2.13,2.55-4.04,5.32-5.68,8.23-4.6,8.16-7.03,17.45-7.03,26.88,0,.61.01,1.22.03,1.82l-5.79.21Z"/>
                <path class="cls-3" d="m64.3,140.38c-.2-1.83-.3-3.7-.3-5.53,0-6.83,1.34-13.45,3.97-19.69h0s.24-.57.24-.57c1.68-3.84,3.83-7.46,6.39-10.76,2.29-2.96,4.92-5.67,7.82-8.07,9.05-7.47,20.5-11.58,32.25-11.58,2.89,0,5.78.24,8.57.73l-.98,5.71c-2.47-.43-5.03-.64-7.59-.64-10.41,0-20.55,3.64-28.56,10.26-2.57,2.12-4.9,4.53-6.93,7.15-2.22,2.86-4.09,5.98-5.55,9.29l-.11.24c-2.47,5.67-3.73,11.7-3.73,17.94,0,1.63.09,3.28.27,4.91l-5.76.62Z"/>
                <path class="cls-3" d="m73.58,141.4c-.34-2.15-.52-4.35-.52-6.56,0-7.73,2.13-15.27,6.17-21.81,2.17-3.52,4.85-6.7,7.97-9.45,7.59-6.68,17.35-10.35,27.47-10.35,2.91,0,5.81.3,8.62.9l-1.2,5.67c-2.41-.51-4.91-.77-7.41-.77-8.71,0-17.11,3.16-23.64,8.91-2.69,2.37-5,5.1-6.87,8.14-3.47,5.63-5.31,12.12-5.31,18.77,0,1.9.15,3.8.44,5.65l-5.72.91Z"/>
              </g>
              <g>
                <path class="cls-3" d="m75.67,95.31c-10.25-9.78-23.69-15.16-37.86-15.16-2.55,0-5.14.18-7.68.53l-.8-5.74c2.81-.39,5.66-.59,8.48-.59,15.67,0,30.53,5.95,41.86,16.76l-4,4.19Z"/>
                <path class="cls-3" d="m68.31,102.7c-8.27-7.82-19.1-12.12-30.5-12.12-2.55,0-5.1.22-7.59.65l-.98-5.71c2.81-.48,5.7-.73,8.57-.73,12.88,0,25.13,4.87,34.48,13.71l-3.98,4.21Z"/>
                <path class="cls-3" d="m62.25,111.27c-6.47-6.66-15.15-10.33-24.44-10.33-2.51,0-5.01.27-7.41.81l-1.27-5.65c2.82-.63,5.74-.95,8.67-.95,10.87,0,21.02,4.29,28.59,12.09l-4.16,4.04Z"/>
                <polygon class="cls-3" points="67.97 118.45 67.97 118.45 73.76 118.45 67.97 118.45"/>
              </g>
            </g>
            <g>
              <path class="cls-3" d="m76.24,141.15c-.81,0-1.64-.02-2.48-.07-2.21-.11-4.44-.39-6.62-.82-3.53-.7-6.98-1.81-10.26-3.31-7.77-3.54-14.43-9.16-19.25-16.24-4.94-7.24-7.72-15.71-8.05-24.49-.03-.57-.04-1.16-.04-1.79l.12-19.51h.39s-.12,19.51-.12,19.51c0,.63.01,1.21.04,1.77.66,17.6,11.03,33.07,27.08,40.39,3.25,1.49,6.68,2.59,10.18,3.28,2.16.43,4.37.7,6.57.82.83.04,1.66.07,2.46.07.06,0,.13,0,.19,0,2.7,0,5.39-.25,8.01-.72,3.74-.67,7.4-1.8,10.87-3.37,15.84-7.16,26.26-22.38,27.19-39.71.05-.83.07-1.68.07-2.52l.03-19.69h.39s-.03,19.69-.03,19.69c0,.85-.02,1.71-.07,2.54-.94,17.47-11.44,32.82-27.42,40.04-3.5,1.58-7.18,2.72-10.96,3.4-2.64.47-5.36.72-8.07.73-.06,0-.13,0-.2,0Z"/>
              <g>
                <path class="cls-3" d="m56.77,136.78c-.02-.64-.03-1.29-.03-1.93,0-9.96,2.57-19.77,7.43-28.39,1.73-3.07,3.74-5.99,5.99-8.69,2.24-2.69,4.73-5.18,7.4-7.4,10.39-8.68,23.57-13.46,37.13-13.46,2.7,0,5.43.19,8.11.56l-.05.38c-2.67-.37-5.38-.56-8.06-.56-13.47,0-26.56,4.75-36.88,13.37-2.65,2.21-5.13,4.68-7.35,7.35-2.24,2.68-4.24,5.58-5.96,8.63-4.83,8.56-7.38,18.32-7.38,28.2,0,.64.01,1.29.03,1.92h-.39Z"/>
                <path class="cls-3" d="m66.99,140.09c-.19-1.74-.28-3.5-.28-5.24,0-6.65,1.34-13.09,3.97-19.14l.02-.04c1.59-3.63,3.62-7.06,6.05-10.19,2.17-2.8,4.66-5.37,7.41-7.64,8.56-7.07,19.41-10.96,30.53-10.96,2.74,0,5.47.23,8.12.69l-.07.38c-2.63-.45-5.33-.68-8.05-.68-11.04,0-21.79,3.86-30.29,10.87-2.72,2.25-5.19,4.8-7.35,7.58-2.4,3.09-4.41,6.48-5.99,10.07l-.02.04c-2.62,6.01-3.95,12.41-3.95,19.02,0,1.73.09,3.48.28,5.2l-.38.04Z"/>
                <path class="cls-3" d="m76.25,140.98c-.32-2.01-.48-4.07-.48-6.13,0-7.22,1.99-14.27,5.76-20.39,2.03-3.29,4.54-6.27,7.46-8.84,7.1-6.24,16.22-9.68,25.68-9.68,2.72,0,5.43.28,8.05.84l-.08.38c-2.6-.55-5.28-.83-7.97-.83-9.37,0-18.4,3.4-25.43,9.58-2.89,2.54-5.38,5.49-7.38,8.75-3.73,6.05-5.71,13.03-5.71,20.18,0,2.04.16,4.09.48,6.07l-.38.06Z"/>
              </g>
              <g>
                <path class="cls-3" d="m77.54,93.35c-10.75-10.26-24.86-15.91-39.73-15.91-2.68,0-5.39.19-8.05.56l-.05-.38c2.68-.37,5.41-.56,8.11-.56,14.97,0,29.17,5.69,40,16.02l-.27.28Z"/>
                <path class="cls-3" d="m70.17,100.73c-8.77-8.29-20.27-12.86-32.36-12.86-2.7,0-5.41.23-8.05.68l-.07-.38c2.66-.46,5.39-.69,8.11-.69,12.19,0,23.78,4.61,32.62,12.97l-.27.28Z"/>
                <path class="cls-3" d="m64.19,109.39c-6.99-7.19-16.35-11.15-26.38-11.15-2.71,0-5.4.29-8,.88l-.08-.38c2.62-.59,5.34-.89,8.08-.89,10.13,0,19.59,4,26.65,11.27l-.28.27Z"/>
                <polygon class="cls-3" points="70.67 118.45 70.67 118.45 71.06 118.45 70.67 118.45"/>
              </g>
            </g>
          </g>
          <g>
            <g>
              <path class="cls-3" d="m76.24,142.5c-.83,0-1.69-.02-2.55-.07-2.28-.12-4.57-.4-6.81-.85-3.63-.72-7.19-1.86-10.56-3.4-7.99-3.64-14.84-9.42-19.81-16.7-5.08-7.45-7.95-16.17-8.28-25.2-.03-.58-.04-1.19-.04-1.84l.12-19.52,3.09.02-.12,19.51c0,.6.01,1.16.04,1.7.64,17.09,10.71,32.12,26.29,39.22,3.16,1.44,6.48,2.52,9.88,3.18,2.1.42,4.24.68,6.37.79.81.04,1.62.06,2.39.06.04,0,.08,0,.11,0h.08c2.61,0,5.22-.24,7.77-.7,3.63-.65,7.18-1.75,10.55-3.27,15.38-6.96,25.49-21.73,26.4-38.55.04-.81.07-1.63.07-2.45l.03-19.69h3.09s-.03,19.7-.03,19.7c0,.88-.02,1.76-.07,2.62-.97,17.98-11.77,33.76-28.21,41.2-3.6,1.63-7.39,2.8-11.28,3.5-2.71.49-5.49.74-8.27.75-.08,0-.16,0-.24,0Z"/>
              <g>
                <path class="cls-3" d="m54.06,136.88c-.02-.67-.04-1.36-.04-2.03,0-10.42,2.69-20.7,7.77-29.72,1.81-3.21,3.92-6.27,6.27-9.09,2.34-2.81,4.95-5.42,7.74-7.75,10.87-9.08,24.67-14.09,38.86-14.09,2.82,0,5.68.2,8.48.59l-.8,5.74c-2.54-.35-5.13-.53-7.69-.53-12.83,0-25.32,4.53-35.15,12.74-2.53,2.11-4.89,4.46-7,7.01-2.13,2.55-4.04,5.32-5.68,8.23-4.6,8.16-7.03,17.45-7.03,26.88,0,.61.01,1.22.03,1.82l-5.79.21Z"/>
                <path class="cls-3" d="m64.3,140.38c-.2-1.83-.3-3.7-.3-5.53,0-6.83,1.34-13.45,3.97-19.69h0s.24-.57.24-.57c1.68-3.84,3.83-7.46,6.39-10.76,2.29-2.96,4.92-5.67,7.82-8.07,9.05-7.47,20.5-11.58,32.25-11.58,2.89,0,5.78.24,8.57.73l-.98,5.71c-2.47-.43-5.03-.64-7.59-.64-10.41,0-20.55,3.64-28.56,10.26-2.57,2.12-4.9,4.53-6.93,7.15-2.22,2.86-4.09,5.98-5.55,9.29l-.11.24c-2.47,5.67-3.73,11.7-3.73,17.94,0,1.63.09,3.28.27,4.91l-5.76.62Z"/>
                <path class="cls-3" d="m73.58,141.4c-.34-2.15-.52-4.35-.52-6.56,0-7.73,2.13-15.27,6.17-21.81,2.17-3.52,4.85-6.7,7.97-9.45,7.59-6.68,17.35-10.35,27.47-10.35,2.91,0,5.81.3,8.62.9l-1.2,5.67c-2.41-.51-4.91-.77-7.41-.77-8.71,0-17.11,3.16-23.64,8.91-2.69,2.37-5,5.1-6.87,8.14-3.47,5.63-5.31,12.12-5.31,18.77,0,1.9.15,3.8.44,5.65l-5.72.91Z"/>
              </g>
              <g>
                <path class="cls-3" d="m75.67,95.31c-10.25-9.78-23.69-15.16-37.86-15.16-2.55,0-5.14.18-7.68.53l-.8-5.74c2.81-.39,5.66-.59,8.48-.59,15.67,0,30.53,5.95,41.86,16.76l-4,4.19Z"/>
                <path class="cls-3" d="m68.31,102.7c-8.27-7.82-19.1-12.12-30.5-12.12-2.55,0-5.1.22-7.59.65l-.98-5.71c2.81-.48,5.7-.73,8.57-.73,12.88,0,25.13,4.87,34.48,13.71l-3.98,4.21Z"/>
                <path class="cls-3" d="m62.25,111.27c-6.47-6.66-15.15-10.33-24.44-10.33-2.51,0-5.01.27-7.41.81l-1.27-5.65c2.82-.63,5.74-.95,8.67-.95,10.87,0,21.02,4.29,28.59,12.09l-4.16,4.04Z"/>
                <polygon class="cls-3" points="67.97 118.45 67.97 118.45 73.76 118.45 67.97 118.45"/>
              </g>
            </g>
            <g>
              <path class="cls-3" d="m76.24,141.15c-.81,0-1.64-.02-2.48-.07-2.21-.11-4.44-.39-6.62-.82-3.53-.7-6.98-1.81-10.26-3.31-7.77-3.54-14.43-9.16-19.25-16.24-4.94-7.24-7.72-15.71-8.05-24.49-.03-.57-.04-1.16-.04-1.79l.12-19.51h.39s-.12,19.51-.12,19.51c0,.63.01,1.21.04,1.77.66,17.6,11.03,33.07,27.08,40.39,3.25,1.49,6.68,2.59,10.18,3.28,2.16.43,4.37.7,6.57.82.83.04,1.66.07,2.46.07.06,0,.13,0,.19,0,2.7,0,5.39-.25,8.01-.72,3.74-.67,7.4-1.8,10.87-3.37,15.84-7.16,26.26-22.38,27.19-39.71.05-.83.07-1.68.07-2.52l.03-19.69h.39s-.03,19.69-.03,19.69c0,.85-.02,1.71-.07,2.54-.94,17.47-11.44,32.82-27.42,40.04-3.5,1.58-7.18,2.72-10.96,3.4-2.64.47-5.36.72-8.07.73-.06,0-.13,0-.2,0Z"/>
              <g>
                <path class="cls-3" d="m56.77,136.78c-.02-.64-.03-1.29-.03-1.93,0-9.96,2.57-19.77,7.43-28.39,1.73-3.07,3.74-5.99,5.99-8.69,2.24-2.69,4.73-5.18,7.4-7.4,10.39-8.68,23.57-13.46,37.13-13.46,2.7,0,5.43.19,8.11.56l-.05.38c-2.67-.37-5.38-.56-8.06-.56-13.47,0-26.56,4.75-36.88,13.37-2.65,2.21-5.13,4.68-7.35,7.35-2.24,2.68-4.24,5.58-5.96,8.63-4.83,8.56-7.38,18.32-7.38,28.2,0,.64.01,1.29.03,1.92h-.39Z"/>
                <path class="cls-3" d="m66.99,140.09c-.19-1.74-.28-3.5-.28-5.24,0-6.65,1.34-13.09,3.97-19.14l.02-.04c1.59-3.63,3.62-7.06,6.05-10.19,2.17-2.8,4.66-5.37,7.41-7.64,8.56-7.07,19.41-10.96,30.53-10.96,2.74,0,5.47.23,8.12.69l-.07.38c-2.63-.45-5.33-.68-8.05-.68-11.04,0-21.79,3.86-30.29,10.87-2.72,2.25-5.19,4.8-7.35,7.58-2.4,3.09-4.41,6.48-5.99,10.07l-.02.04c-2.62,6.01-3.95,12.41-3.95,19.02,0,1.73.09,3.48.28,5.2l-.38.04Z"/>
                <path class="cls-3" d="m76.25,140.98c-.32-2.01-.48-4.07-.48-6.13,0-7.22,1.99-14.27,5.76-20.39,2.03-3.29,4.54-6.27,7.46-8.84,7.1-6.24,16.22-9.68,25.68-9.68,2.72,0,5.43.28,8.05.84l-.08.38c-2.6-.55-5.28-.83-7.97-.83-9.37,0-18.4,3.4-25.43,9.58-2.89,2.54-5.38,5.49-7.38,8.75-3.73,6.05-5.71,13.03-5.71,20.18,0,2.04.16,4.09.48,6.07l-.38.06Z"/>
              </g>
              <g>
                <path class="cls-3" d="m77.54,93.35c-10.75-10.26-24.86-15.91-39.73-15.91-2.68,0-5.39.19-8.05.56l-.05-.38c2.68-.37,5.41-.56,8.11-.56,14.97,0,29.17,5.69,40,16.02l-.27.28Z"/>
                <path class="cls-3" d="m70.17,100.73c-8.77-8.29-20.27-12.86-32.36-12.86-2.7,0-5.41.23-8.05.68l-.07-.38c2.66-.46,5.39-.69,8.11-.69,12.19,0,23.78,4.61,32.62,12.97l-.27.28Z"/>
                <path class="cls-3" d="m64.19,109.39c-6.99-7.19-16.35-11.15-26.38-11.15-2.71,0-5.4.29-8,.88l-.08-.38c2.62-.59,5.34-.89,8.08-.89,10.13,0,19.59,4,26.65,11.27l-.28.27Z"/>
                <polygon class="cls-3" points="70.67 118.45 70.67 118.45 71.06 118.45 70.67 118.45"/>
              </g>
            </g>
          </g>
        </g>
      </g>
      <g>
        <text class="cls-4" transform="translate(170.66 87.61) rotate(-90)"><tspan x="0" y="0">ADO</tspan></text>
        <line class="cls-1" x1="165.8" y1="89.47" x2="165.8" y2="118.79"/>
        <line class="cls-1" x1="165.8" y1="23.96" x2="165.8" y2="51.94"/>
      </g>
    </g>
  </g>
</svg>