<?xml version="1.0" encoding="UTF-8"?>
<svg id="Layer_2" data-name="Layer 2" xmlns="http://www.w3.org/2000/svg" viewBox="0 0 682.09 149.54">
  <defs>
    <style>
      .cls-1 {
        font-family: Montserrat-Regular, Montserrat;
        font-size: 25.2px;
      }

      .cls-1, .cls-2 {
        fill: #231f20;
      }

      .cls-3 {
        letter-spacing: 0em;
      }

      .cls-4 {
        letter-spacing: 0em;
      }

      .cls-5 {
        letter-spacing: 0em;
      }

      .cls-2 {
        font-family: Amiri-Regular, Amiri;
        font-size: 34.06px;
      }

      .cls-6 {
        fill: #327f3e;
        font-size: 13.59px;
      }

      .cls-6, .cls-7 {
        font-family: Montserrat-Bold, Montserrat;
        font-weight: 700;
      }

      .cls-8 {
        stroke: #f9bf2c;
        stroke-width: 2.75px;
      }

      .cls-8, .cls-9 {
        fill: none;
        stroke-miterlimit: 10;
      }

      .cls-10 {
        letter-spacing: 0em;
      }

      .cls-11 {
        letter-spacing: 0em;
      }

      .cls-12 {
        stroke-width: 0px;
      }

      .cls-12, .cls-7 {
        fill: #317e3d;
      }

      .cls-13 {
        letter-spacing: 0em;
      }

      .cls-14 {
        letter-spacing: 0em;
      }

      .cls-15 {
        letter-spacing: 0em;
      }

      .cls-16 {
        letter-spacing: 0em;
      }

      .cls-9 {
        stroke: #317e3d;
        stroke-linecap: round;
        stroke-width: 1.38px;
      }

      .cls-17 {
        letter-spacing: -.01em;
      }

      .cls-7 {
        font-size: 32.69px;
      }

      .cls-18 {
        letter-spacing: 0em;
      }

      .cls-19 {
        letter-spacing: 0em;
      }

      .cls-20 {
        letter-spacing: 0em;
      }

      .cls-21 {
        letter-spacing: -.01em;
      }

      .cls-22 {
        letter-spacing: 0em;
      }
    </style>
  </defs>
  <g id="MAIN_LOGO" data-name="MAIN LOGO">
    <g>
      <text transform="translate(182.47 47.78)"><tspan class="cls-7"><tspan x="0" y="0">Uru</tspan><tspan class="cls-11" x="62.31" y="0">r</tspan><tspan class="cls-3" x="76.27" y="0">k</tspan><tspan x="97.53" y="0">a Horuma</tspan><tspan class="cls-4" x="265.8" y="0">r</tspan><tspan x="279.76" y="0">inta Bee</tspan><tspan class="cls-19" x="422.11" y="0">r</tspan><tspan x="435.97" y="0">aha</tspan></tspan><tspan class="cls-1"><tspan class="cls-18" x="0" y="30.24">A</tspan><tspan class="cls-10" x="17.94" y="30.24">g</tspan><tspan class="cls-16" x="35.23" y="30.24">r</tspan><tspan class="cls-10" x="45.14" y="30.24">icu</tspan><tspan class="cls-5" x="83.06" y="30.24">l</tspan><tspan x="89.89" y="30.24">tu</tspan><tspan class="cls-22" x="117.08" y="30.24">r</tspan><tspan class="cls-14" x="126.96" y="30.24">al D</tspan><tspan class="cls-20" x="176.03" y="30.24">e</tspan><tspan class="cls-21" x="191" y="30.24">v</tspan><tspan class="cls-15" x="204.28" y="30.24">elop</tspan><tspan class="cls-13" x="259.17" y="30.24">m</tspan><tspan x="285.96" y="30.24">ent O</tspan><tspan class="cls-17" x="356.22" y="30.24">r</tspan><tspan x="366" y="30.24">ganization</tspan></tspan><tspan class="cls-2"><tspan x="0" y="71.11">ةعارزلا ةيمنت ةمظنم</tspan></tspan></text>
      <g>
        <polyline class="cls-8" points="44.33 79.78 11.12 73.51 44.85 71.45 14.24 57.12 47.43 63.52 21.34 42.03 51.9 56.48 31.98 29.18 57.98 50.77 45.47 19.37 65.29 46.75 60.98 13.23 73.36 44.68 77.54 11.14 81.71 44.68 94.09 13.23 89.78 46.75 109.6 19.37 97.09 50.77 123.09 29.18 103.17 56.48 133.73 42.03 107.64 63.52 140.83 57.12 110.22 71.45 143.95 73.51 110.74 79.78"/>
        <g>
          <g>
            <g>
              <path class="cls-12" d="m77.52,144.88c-.84,0-1.72-.02-2.59-.07-2.32-.12-4.65-.41-6.93-.86-3.69-.73-7.31-1.89-10.74-3.46-8.13-3.71-15.09-9.58-20.14-16.98-5.17-7.58-8.08-16.44-8.42-25.62-.03-.59-.04-1.21-.04-1.87l.13-19.85,3.14.02-.13,19.84c0,.61.01,1.18.04,1.73.65,17.38,10.89,32.66,26.73,39.88,3.21,1.47,6.59,2.56,10.04,3.24,2.13.42,4.31.69,6.48.8.82.04,1.64.06,2.43.06.04,0,.08,0,.11,0h.09c2.65,0,5.31-.25,7.9-.71,3.7-.66,7.3-1.78,10.72-3.33,15.64-7.07,25.92-22.09,26.84-39.19.05-.82.07-1.66.07-2.49l.03-20.02h3.14s-.03,20.03-.03,20.03c0,.89-.02,1.79-.07,2.66-.98,18.28-11.97,34.33-28.68,41.89-3.66,1.65-7.51,2.85-11.46,3.55-2.75.49-5.58.75-8.41.76-.08,0-.16,0-.24,0Z"/>
              <g>
                <path class="cls-12" d="m54.97,139.17c-.02-.68-.04-1.38-.04-2.07,0-10.59,2.73-21.04,7.9-30.22,1.84-3.27,3.98-6.38,6.38-9.25,2.38-2.86,5.03-5.51,7.87-7.88,11.05-9.24,25.08-14.32,39.51-14.32,2.87,0,5.77.2,8.62.6l-.81,5.83c-2.59-.36-5.22-.54-7.81-.54-13.05,0-25.74,4.6-35.74,12.96-2.57,2.14-4.97,4.54-7.12,7.13-2.17,2.6-4.11,5.41-5.77,8.36-4.67,8.3-7.15,17.75-7.15,27.33,0,.62.01,1.24.03,1.85l-5.89.21Z"/>
                <path class="cls-12" d="m65.37,142.73c-.2-1.86-.3-3.76-.3-5.63,0-6.95,1.36-13.68,4.04-20.02h0s.25-.58.25-.58c1.7-3.9,3.89-7.58,6.5-10.94,2.33-3.01,5.01-5.77,7.95-8.2,9.2-7.6,20.85-11.78,32.79-11.78,2.94,0,5.87.25,8.72.74l-1,5.81c-2.52-.43-5.11-.65-7.72-.65-10.58,0-20.9,3.7-29.04,10.43-2.61,2.16-4.98,4.61-7.05,7.27-2.26,2.91-4.15,6.08-5.65,9.45l-.11.25c-2.52,5.76-3.79,11.9-3.79,18.24,0,1.66.09,3.34.27,4.99l-5.86.63Z"/>
                <path class="cls-12" d="m74.81,143.77c-.35-2.18-.52-4.43-.52-6.67,0-7.85,2.17-15.52,6.27-22.17,2.2-3.58,4.93-6.81,8.11-9.61,7.72-6.79,17.64-10.53,27.93-10.53,2.96,0,5.91.31,8.76.91l-1.22,5.76c-2.45-.52-4.99-.78-7.54-.78-8.86,0-17.4,3.22-24.04,9.06-2.73,2.41-5.08,5.19-6.98,8.27-3.53,5.72-5.39,12.32-5.39,19.08,0,1.93.15,3.86.45,5.74l-5.82.93Z"/>
              </g>
              <g>
                <path class="cls-12" d="m76.94,96.91c-10.42-9.94-24.09-15.42-38.5-15.42-2.6,0-5.22.18-7.81.54l-.81-5.83c2.85-.4,5.75-.6,8.62-.6,15.93,0,31.04,6.05,42.56,17.04l-4.07,4.26Z"/>
                <path class="cls-12" d="m69.45,104.42c-8.41-7.95-19.42-12.33-31.01-12.33-2.59,0-5.18.22-7.72.66l-1-5.81c2.86-.49,5.79-.74,8.71-.74,13.1,0,25.55,4.95,35.06,13.94l-4.05,4.28Z"/>
                <path class="cls-12" d="m63.29,113.13c-6.58-6.77-15.4-10.5-24.85-10.5-2.56,0-5.09.28-7.53.82l-1.29-5.75c2.87-.64,5.83-.97,8.82-.97,11.05,0,21.37,4.36,29.07,12.29l-4.22,4.1Z"/>
                <polygon class="cls-12" points="69.11 120.44 69.11 120.43 75 120.43 69.11 120.44"/>
              </g>
            </g>
            <g>
              <path class="cls-12" d="m77.52,143.51c-.82,0-1.67-.02-2.52-.07-2.25-.12-4.52-.4-6.73-.84-3.59-.71-7.1-1.84-10.43-3.36-7.9-3.6-14.67-9.31-19.58-16.51-5.02-7.36-7.85-15.97-8.18-24.9-.03-.58-.04-1.18-.04-1.82l.13-19.84h.39s-.13,19.84-.13,19.84c0,.64.01,1.23.04,1.8.67,17.89,11.22,33.63,27.53,41.06,3.31,1.51,6.79,2.63,10.35,3.34,2.2.43,4.44.71,6.68.83.85.04,1.69.07,2.5.07.06,0,.13,0,.19,0,2.74,0,5.48-.25,8.14-.73,3.81-.68,7.52-1.83,11.05-3.43,16.11-7.28,26.7-22.75,27.64-40.37.05-.84.07-1.71.07-2.57l.03-20.02h.39s-.03,20.02-.03,20.02c0,.87-.02,1.74-.07,2.59-.95,17.77-11.63,33.37-27.87,40.71-3.55,1.61-7.3,2.77-11.14,3.45-2.69.48-5.45.73-8.2.74-.06,0-.13,0-.2,0Z"/>
              <g>
                <path class="cls-12" d="m57.72,139.07c-.02-.65-.04-1.31-.04-1.97,0-10.12,2.61-20.11,7.55-28.87,1.76-3.12,3.81-6.09,6.1-8.83,2.27-2.73,4.81-5.26,7.52-7.53,10.56-8.83,23.97-13.69,37.75-13.69,2.74,0,5.52.19,8.25.57l-.05.39c-2.71-.38-5.47-.57-8.19-.57-13.69,0-27.01,4.83-37.5,13.6-2.7,2.25-5.21,4.76-7.47,7.48-2.27,2.72-4.31,5.67-6.05,8.77-4.91,8.71-7.5,18.62-7.5,28.68,0,.65.01,1.31.04,1.95h-.39Z"/>
                <path class="cls-12" d="m68.11,142.43c-.19-1.77-.29-3.56-.29-5.33,0-6.76,1.36-13.31,4.04-19.46l.02-.04c1.61-3.69,3.68-7.18,6.15-10.36,2.21-2.85,4.74-5.46,7.53-7.77,8.71-7.19,19.73-11.15,31.04-11.15,2.78,0,5.56.23,8.25.7l-.07.39c-2.67-.46-5.42-.69-8.19-.69-11.22,0-22.16,3.93-30.79,11.06-2.77,2.29-5.28,4.88-7.47,7.71-2.44,3.15-4.49,6.59-6.09,10.24l-.02.04c-2.67,6.11-4.02,12.62-4.02,19.34,0,1.76.1,3.54.29,5.29l-.39.04Z"/>
                <path class="cls-12" d="m77.53,143.34c-.32-2.04-.49-4.14-.49-6.24,0-7.34,2.03-14.51,5.86-20.73,2.06-3.35,4.61-6.37,7.58-8.99,7.22-6.35,16.49-9.84,26.11-9.84,2.77,0,5.52.29,8.19.85l-.08.38c-2.64-.56-5.37-.84-8.11-.84-9.53,0-18.71,3.46-25.86,9.74-2.94,2.59-5.47,5.58-7.51,8.9-3.8,6.15-5.8,13.25-5.8,20.52,0,2.08.16,4.15.48,6.17l-.39.06Z"/>
              </g>
              <g>
                <path class="cls-12" d="m78.84,94.92c-10.93-10.43-25.28-16.18-40.39-16.18-2.72,0-5.48.19-8.19.57l-.05-.39c2.73-.38,5.5-.57,8.24-.57,15.22,0,29.66,5.78,40.67,16.28l-.27.28Z"/>
                <path class="cls-12" d="m71.34,102.42c-8.92-8.43-20.61-13.08-32.9-13.08-2.74,0-5.5.23-8.18.7l-.07-.39c2.71-.47,5.48-.7,8.25-.7,12.39,0,24.17,4.68,33.17,13.19l-.27.29Z"/>
                <path class="cls-12" d="m65.26,111.22c-7.1-7.31-16.63-11.34-26.82-11.34-2.76,0-5.49.3-8.13.89l-.09-.38c2.67-.6,5.43-.9,8.22-.9,10.3,0,19.92,4.07,27.1,11.46l-.28.27Z"/>
                <polygon class="cls-12" points="71.86 120.44 71.86 120.43 72.25 120.43 71.86 120.44"/>
              </g>
            </g>
          </g>
          <g>
            <g>
              <path class="cls-12" d="m77.52,144.88c-.84,0-1.72-.02-2.59-.07-2.32-.12-4.65-.41-6.93-.86-3.69-.73-7.31-1.89-10.74-3.46-8.13-3.71-15.09-9.58-20.14-16.98-5.17-7.58-8.08-16.44-8.42-25.62-.03-.59-.04-1.21-.04-1.87l.13-19.85,3.14.02-.13,19.84c0,.61.01,1.18.04,1.73.65,17.38,10.89,32.66,26.73,39.88,3.21,1.47,6.59,2.56,10.04,3.24,2.13.42,4.31.69,6.48.8.82.04,1.64.06,2.43.06.04,0,.08,0,.11,0h.09c2.65,0,5.31-.25,7.9-.71,3.7-.66,7.3-1.78,10.72-3.33,15.64-7.07,25.92-22.09,26.84-39.19.05-.82.07-1.66.07-2.49l.03-20.02h3.14s-.03,20.03-.03,20.03c0,.89-.02,1.79-.07,2.66-.98,18.28-11.97,34.33-28.68,41.89-3.66,1.65-7.51,2.85-11.46,3.55-2.75.49-5.58.75-8.41.76-.08,0-.16,0-.24,0Z"/>
              <g>
                <path class="cls-12" d="m54.97,139.17c-.02-.68-.04-1.38-.04-2.07,0-10.59,2.73-21.04,7.9-30.22,1.84-3.27,3.98-6.38,6.38-9.25,2.38-2.86,5.03-5.51,7.87-7.88,11.05-9.24,25.08-14.32,39.51-14.32,2.87,0,5.77.2,8.62.6l-.81,5.83c-2.59-.36-5.22-.54-7.81-.54-13.05,0-25.74,4.6-35.74,12.96-2.57,2.14-4.97,4.54-7.12,7.13-2.17,2.6-4.11,5.41-5.77,8.36-4.67,8.3-7.15,17.75-7.15,27.33,0,.62.01,1.24.03,1.85l-5.89.21Z"/>
                <path class="cls-12" d="m65.37,142.73c-.2-1.86-.3-3.76-.3-5.63,0-6.95,1.36-13.68,4.04-20.02h0s.25-.58.25-.58c1.7-3.9,3.89-7.58,6.5-10.94,2.33-3.01,5.01-5.77,7.95-8.2,9.2-7.6,20.85-11.78,32.79-11.78,2.94,0,5.87.25,8.72.74l-1,5.81c-2.52-.43-5.11-.65-7.72-.65-10.58,0-20.9,3.7-29.04,10.43-2.61,2.16-4.98,4.61-7.05,7.27-2.26,2.91-4.15,6.08-5.65,9.45l-.11.25c-2.52,5.76-3.79,11.9-3.79,18.24,0,1.66.09,3.34.27,4.99l-5.86.63Z"/>
                <path class="cls-12" d="m74.81,143.77c-.35-2.18-.52-4.43-.52-6.67,0-7.85,2.17-15.52,6.27-22.17,2.2-3.58,4.93-6.81,8.11-9.61,7.72-6.79,17.64-10.53,27.93-10.53,2.96,0,5.91.31,8.76.91l-1.22,5.76c-2.45-.52-4.99-.78-7.54-.78-8.86,0-17.4,3.22-24.04,9.06-2.73,2.41-5.08,5.19-6.98,8.27-3.53,5.72-5.39,12.32-5.39,19.08,0,1.93.15,3.86.45,5.74l-5.82.93Z"/>
              </g>
              <g>
                <path class="cls-12" d="m76.94,96.91c-10.42-9.94-24.09-15.42-38.5-15.42-2.6,0-5.22.18-7.81.54l-.81-5.83c2.85-.4,5.75-.6,8.62-.6,15.93,0,31.04,6.05,42.56,17.04l-4.07,4.26Z"/>
                <path class="cls-12" d="m69.45,104.42c-8.41-7.95-19.42-12.33-31.01-12.33-2.59,0-5.18.22-7.72.66l-1-5.81c2.86-.49,5.79-.74,8.71-.74,13.1,0,25.55,4.95,35.06,13.94l-4.05,4.28Z"/>
                <path class="cls-12" d="m63.29,113.13c-6.58-6.77-15.4-10.5-24.85-10.5-2.56,0-5.09.28-7.53.82l-1.29-5.75c2.87-.64,5.83-.97,8.82-.97,11.05,0,21.37,4.36,29.07,12.29l-4.22,4.1Z"/>
                <polygon class="cls-12" points="69.11 120.44 69.11 120.43 75 120.43 69.11 120.44"/>
              </g>
            </g>
            <g>
              <path class="cls-12" d="m77.52,143.51c-.82,0-1.67-.02-2.52-.07-2.25-.12-4.52-.4-6.73-.84-3.59-.71-7.1-1.84-10.43-3.36-7.9-3.6-14.67-9.31-19.58-16.51-5.02-7.36-7.85-15.97-8.18-24.9-.03-.58-.04-1.18-.04-1.82l.13-19.84h.39s-.13,19.84-.13,19.84c0,.64.01,1.23.04,1.8.67,17.89,11.22,33.63,27.53,41.06,3.31,1.51,6.79,2.63,10.35,3.34,2.2.43,4.44.71,6.68.83.85.04,1.69.07,2.5.07.06,0,.13,0,.19,0,2.74,0,5.48-.25,8.14-.73,3.81-.68,7.52-1.83,11.05-3.43,16.11-7.28,26.7-22.75,27.64-40.37.05-.84.07-1.71.07-2.57l.03-20.02h.39s-.03,20.02-.03,20.02c0,.87-.02,1.74-.07,2.59-.95,17.77-11.63,33.37-27.87,40.71-3.55,1.61-7.3,2.77-11.14,3.45-2.69.48-5.45.73-8.2.74-.06,0-.13,0-.2,0Z"/>
              <g>
                <path class="cls-12" d="m57.72,139.07c-.02-.65-.04-1.31-.04-1.97,0-10.12,2.61-20.11,7.55-28.87,1.76-3.12,3.81-6.09,6.1-8.83,2.27-2.73,4.81-5.26,7.52-7.53,10.56-8.83,23.97-13.69,37.75-13.69,2.74,0,5.52.19,8.25.57l-.05.39c-2.71-.38-5.47-.57-8.19-.57-13.69,0-27.01,4.83-37.5,13.6-2.7,2.25-5.21,4.76-7.47,7.48-2.27,2.72-4.31,5.67-6.05,8.77-4.91,8.71-7.5,18.62-7.5,28.68,0,.65.01,1.31.04,1.95h-.39Z"/>
                <path class="cls-12" d="m68.11,142.43c-.19-1.77-.29-3.56-.29-5.33,0-6.76,1.36-13.31,4.04-19.46l.02-.04c1.61-3.69,3.68-7.18,6.15-10.36,2.21-2.85,4.74-5.46,7.53-7.77,8.71-7.19,19.73-11.15,31.04-11.15,2.78,0,5.56.23,8.25.7l-.07.39c-2.67-.46-5.42-.69-8.19-.69-11.22,0-22.16,3.93-30.79,11.06-2.77,2.29-5.28,4.88-7.47,7.71-2.44,3.15-4.49,6.59-6.09,10.24l-.02.04c-2.67,6.11-4.02,12.62-4.02,19.34,0,1.76.1,3.54.29,5.29l-.39.04Z"/>
                <path class="cls-12" d="m77.53,143.34c-.32-2.04-.49-4.14-.49-6.24,0-7.34,2.03-14.51,5.86-20.73,2.06-3.35,4.61-6.37,7.58-8.99,7.22-6.35,16.49-9.84,26.11-9.84,2.77,0,5.52.29,8.19.85l-.08.38c-2.64-.56-5.37-.84-8.11-.84-9.53,0-18.71,3.46-25.86,9.74-2.94,2.59-5.47,5.58-7.51,8.9-3.8,6.15-5.8,13.25-5.8,20.52,0,2.08.16,4.15.48,6.17l-.39.06Z"/>
              </g>
              <g>
                <path class="cls-12" d="m78.84,94.92c-10.93-10.43-25.28-16.18-40.39-16.18-2.72,0-5.48.19-8.19.57l-.05-.39c2.73-.38,5.5-.57,8.24-.57,15.22,0,29.66,5.78,40.67,16.28l-.27.28Z"/>
                <path class="cls-12" d="m71.34,102.42c-8.92-8.43-20.61-13.08-32.9-13.08-2.74,0-5.5.23-8.18.7l-.07-.39c2.71-.47,5.48-.7,8.25-.7,12.39,0,24.17,4.68,33.17,13.19l-.27.29Z"/>
                <path class="cls-12" d="m65.26,111.22c-7.1-7.31-16.63-11.34-26.82-11.34-2.76,0-5.49.3-8.13.89l-.09-.38c2.67-.6,5.43-.9,8.22-.9,10.3,0,19.92,4.07,27.1,11.46l-.28.27Z"/>
                <polygon class="cls-12" points="71.86 120.44 71.86 120.43 72.25 120.43 71.86 120.44"/>
              </g>
            </g>
          </g>
        </g>
      </g>
      <g>
        <text class="cls-6" transform="translate(174.11 89.32) rotate(-90)"><tspan x="0" y="0">ADO</tspan></text>
        <line class="cls-9" x1="169.18" y1="91.21" x2="169.18" y2="120.99"/>
        <line class="cls-9" x1="169.18" y1="24.66" x2="169.18" y2="53.09"/>
      </g>
    </g>
  </g>
</svg>